<?xml version="1.0" standalone="no"?>
<!DOCTYPE svg PUBLIC "-//W3C//DTD SVG 1.1//EN" "http://www.w3.org/Graphics/SVG/1.1/DTD/svg11.dtd" >
<svg>
<metadata>
Created by FontForge 20090914 at Thu Jul  2 12:59:52 2020
 By www-data
Copyright (c) 1992 Image Club Graphics, Inc.
</metadata>
<defs>
<font id="AvantGardeBold" horiz-adv-x="307" >
  <font-face 
    font-family="Avant Garde"
    font-weight="7"
    font-stretch="normal"
    units-per-em="1250"
    panose-1="0 0 0 0 0 0 0 0 0 0"
    ascent="1000"
    descent="-250"
    x-height="747"
    cap-height="1000"
    bbox="-76 -352.001 1505 1358"
    underline-thickness="20"
    underline-position="-128"
    unicode-range="U+0020-U+25CA"
  />
<missing-glyph horiz-adv-x="1000" 
d="M62 0v1000h876v-1000h-876zM876 62v876h-752v-876h752z" />
    <glyph glyph-name=".notdef" horiz-adv-x="1000" 
d="M62 0v1000h876v-1000h-876zM876 62v876h-752v-876h752z" />
    <glyph glyph-name="space" unicode=" " horiz-adv-x="385" 
 />
    <glyph glyph-name="exclam" unicode="!" horiz-adv-x="298" 
d="M240 254h-176v746h176v-746zM242 0h-179v170h178z" />
    <glyph glyph-name="quotedbl" unicode="&#x22;" horiz-adv-x="402" 
d="M343 695h-99v305h99v-305zM165 695h-99v305h99v-305z" />
    <glyph glyph-name="numbersign" unicode="#" horiz-adv-x="785" 
d="M716 569l-139 1l-14 -124h119l-2 -130h-135l-44 -316h-120l43 317h-117l-43 -317h-120l43 316h-134l1 131l153 -1l20 128l-135 -1v131h152l40 296h116l-42 -297h119l39 297h121l-40 -298l119 -1v-132zM460 573h-119l-16 -127l117 1z" />
    <glyph glyph-name="dollar" unicode="$" horiz-adv-x="704" 
d="M636 317c0 -64 -17.335 -119.328 -52.002 -165.995s-83 -79.667 -145 -99v-177h-167v180c-28.667 5.33301 -58.667 17.666 -90 36.999s-55 40.666 -71 63.999c-19.333 28 -32.833 53.667 -40.5 77s-11.5 51.666 -11.5 84.999h175c0 -30.667 11.333 -57.334 34 -80.001
s49.667 -34 81 -34c30.667 0 57.5 11.167 80.5 33.5s34.5 49.166 34.5 80.499c0 4.66699 -0.666992 11.667 -2 21c-7.33301 41.333 -35.166 71.333 -83.499 90l-145.5 56c-43.333 24 -75 50.667 -95 80c-26 37.333 -39 84.666 -39 141.999c0 66.667 17.667 121.667 53 165
c29.333 36 70 62.667 122 80v151h168v-154c43.333 -16 79.333 -41.667 108 -77c18 -22 32.167 -46.667 42.5 -74s15.5 -51.666 15.5 -72.999h-170c-2 22 -11.167 40.5 -27.5 55.5s-35.166 22.5 -56.499 22.5c-26 0 -47.5 -10.5 -64.5 -31.5s-25.5 -46.833 -25.5 -77.5
c0 -27.333 19 -50.333 57 -69c18 -8.66699 46.667 -18.667 86 -30c152.667 -43.333 229 -136 229 -278z" />
    <glyph glyph-name="percent" unicode="%" horiz-adv-x="1229" 
d="M546 787c0 -68 -23.835 -127.167 -71.502 -177.5s-105.167 -75.5 -172.5 -75.5s-125.166 23.5 -173.499 70.5s-72.5 103.833 -72.5 170.5c0 68.667 24.333 127.667 73 177s107.334 74 176.001 74c66 0 122.667 -23.333 170 -70s71 -103 71 -169zM888.998 1001l-421 -1004
h-139l420 1004h140zM1164 224c0 -68.667 -23.833 -128.167 -71.5 -178.5s-105.5 -75.5 -173.5 -75.5c-66.667 0 -124.334 23.667 -173.001 71s-73 104.333 -73 171c0 68.667 24.333 127.667 73 177s107.334 74 176.001 74c66 0 122.833 -23.5 170.5 -70.5
s71.5 -103.167 71.5 -168.5zM394.998 783c0 25.333 -8.99902 46.668 -26.999 64.001s-39.667 26 -65 26c-26 0 -48.667 -8.33301 -68 -25s-29 -37.334 -29 -62.001c0 -27.333 8.5 -51 25.5 -71s38.5 -30 64.5 -30c27.333 0 50.666 9.33301 69.999 28s29 42 29 70z
M1012 220.002c0 24.667 -8.83203 45.832 -26.499 63.499s-39.167 26.5 -64.5 26.5c-26.667 0 -49.5 -8.16699 -68.5 -24.5s-28.5 -37.166 -28.5 -62.499c0 -27.333 8.66699 -51 26 -71s38.666 -30 63.999 -30c27.333 0 50.5 9.5 69.5 28.5s28.5 42.167 28.5 69.5z" />
    <glyph glyph-name="ampersand" unicode="&#x26;" horiz-adv-x="983" 
d="M919 93l-133.999 -120.999l-137 149l-17 -23c-32 -44 -70.5 -77.167 -115.5 -99.5s-91.5 -33.5 -139.5 -33.5c-44.667 0 -86.834 8.66699 -126.501 26s-75 42.5 -106 75.5s-54 68.667 -69 107s-22.5 77.166 -22.5 116.499c0 55.333 13.833 107.5 41.5 156.5
s66.5 87.833 116.5 116.5l32 19l-13 15c-26 29.333 -44 54.333 -54 75c-12.667 26 -19 55.333 -19 88c0 73.333 25 137 75 191s111.333 81 184 81c72 0 134 -24.333 186 -73s78 -108 78 -178c0 -53.333 -12 -99.833 -36 -139.5s-60.333 -73.5 -109 -101.5l-18 -11l96 -107
l101 174l203 1l-177 -311zM497.001 801.001c-6.66699 18 -16.833 31.334 -30.5 40.001s-29.167 13 -46.5 13c-36 0 -62 -14.333 -78 -43c-3.33301 -5.33301 -6 -11.833 -8 -19.5s-3 -14.834 -3 -21.501c0 -14 3.16699 -27.5 9.5 -40.5s15.833 -26.5 28.5 -40.5l33 -34l36 20
c19.333 11.333 35 25 47 41s18 33.333 18 52c0 10 -2 21 -6 33zM517.002 257.002l-160 180l-32 -17c-29.333 -16 -51.833 -37 -67.5 -63s-23.5 -53 -23.5 -81c0 -39.333 14.667 -71.666 44 -96.999c26 -22 56 -33 90 -33c26 0 50 6.16699 72 18.5s40.667 31.166 56 56.499z
" />
    <glyph glyph-name="quotesingle" unicode="'" horiz-adv-x="217" 
d="M165 695h-99v305h99v-305z" />
    <glyph glyph-name="parenleft" unicode="(" horiz-adv-x="510" 
d="M435 -2l-1 -191l-11 4c-100.667 31.333 -187.334 105.166 -260.001 221.499s-109 241.833 -109 376.5c0 131.333 37.667 255.333 113 372c70.667 109.333 151.334 179.666 242.001 210.999l23 8v-189l-14 -11c-48 -35.333 -89 -87.666 -123 -156.999
c-36.667 -75.333 -55 -153 -55 -233c0 -81.333 17.667 -159.333 53 -234c32.667 -69.333 75 -124.666 127 -165.999z" />
    <glyph glyph-name="parenright" unicode=")" horiz-adv-x="501" 
d="M435 398c0 -132.667 -37.332 -257.666 -111.999 -374.999c-71.333 -112 -152.333 -181.667 -243 -209l-27 -8l3 190l14 10c48.667 35.333 90 87.666 124 156.999c36.667 75.333 55 153.333 55 234c0 82 -17.667 160 -53 234c-32.667 69.333 -75.334 124.333 -128.001 165
l-14 12v191l11 -4c101.333 -31.333 188.333 -104.833 261 -220.5s109 -241.167 109 -376.5z" />
    <glyph glyph-name="asterisk" unicode="*" horiz-adv-x="391" 
d="M324 936l-93 7l52 -78l-51 -32l-42 84l-40 -84l-56 27l50 84l-91 -7v62l91 -6l-50 81l55 28l41 -84l42 85l51 -33l-50 -77l91 6v-63z" />
    <glyph glyph-name="plus" unicode="+" horiz-adv-x="743" 
d="M678 241h-237v-242h-139v243h-236v145h236v235h139v-238h237v-143z" />
    <glyph glyph-name="comma" unicode="," horiz-adv-x="302" 
d="M248 -51c0 -12.667 -4.16699 -27.668 -12.5 -45.001s-16.166 -29.333 -23.499 -36c-16 -15.333 -34.833 -28.666 -56.5 -39.999s-40.834 -17 -57.501 -17h-24l-1 89l9 1c8 0 17.167 2.83301 27.5 8.5s18.833 12.167 25.5 19.5c10.667 12 16 24 16 36v34h-81v181h178v-231
z" />
    <glyph glyph-name="hyphen" unicode="-" horiz-adv-x="510" 
d="M440 350h-387v178h387v-178z" />
    <glyph glyph-name="period" unicode="." horiz-adv-x="311" 
d="M253 2h-183v180h183v-180z" />
    <glyph glyph-name="slash" unicode="/" horiz-adv-x="675" 
d="M612 999l-445 -1198h-114l445 1198h114z" />
    <glyph glyph-name="zero" unicode="0" horiz-adv-x="797" 
d="M724 319c0 -106.667 -31 -191.668 -93 -255.001c-59.333 -60.667 -136.333 -91 -231 -91c-96.667 0 -178 30 -244 90c-68.667 62.667 -103 144 -103 244v362c0 107.333 32 193 96 257c61.333 61.333 140 92 236 92c92 0 171.333 -29.667 238 -89
s100 -132.666 100 -219.999zM543 678.999c0 44 -13.667 82.333 -41 115s-62.333 49 -105 49c-44 0 -81.667 -14.167 -113 -42.5s-47 -63.833 -47 -106.5l-1 -395c0 -42.667 16.167 -78.5 48.5 -107.5s70.833 -43.5 115.5 -43.5c39.333 0 72.833 15.167 100.5 45.5
s41.5 65.833 41.5 106.5z" />
    <glyph glyph-name="one" unicode="1" horiz-adv-x="443" 
d="M375 1000l-1 -1000l-182 1v831h-126v168h309z" />
    <glyph glyph-name="two" unicode="2" horiz-adv-x="781" 
d="M712 0l-644 -0.00195312v175l393 361c24 22 42.333 47 55 75s19 56.667 19 86c0 18.667 -3 37 -9 55c-10 29.333 -27.667 51.833 -53 67.5s-54.333 23.5 -87 23.5c-42 0 -77.5 -16.167 -106.5 -48.5s-43.5 -70.166 -43.5 -113.499v-26h-179v33
c0 90 31.167 167.5 93.5 232.5s137.833 97.5 226.5 97.5c86 0 160.833 -27.833 224.5 -83.5s100.167 -125.834 109.5 -210.501c1.33301 -7.33301 2 -14.666 2 -21.999v-21c0 -48 -9 -92.167 -27 -132.5s-44 -76.166 -78 -107.499l-291 -271h395v-170z" />
    <glyph glyph-name="three" unicode="3" horiz-adv-x="798" 
d="M733 286c0 -88.667 -34.666 -163.002 -103.999 -223.002s-150.333 -90 -243 -90c-88.667 0 -166.334 31.333 -233.001 94s-100 135.334 -100 218.001v9l180 2l3 -24c4.66699 -32.667 23.667 -61.167 57 -85.5s69 -36.5 107 -36.5c20.667 0 39 3.33301 55 10
c31.333 12 56 31.833 74 59.5s27 58.167 27 91.5c0 10.667 -0.666992 19.334 -2 26.001s-4 16.334 -8 29.001c-14 39.333 -39.333 69 -76 89c-28.667 16 -59 24 -91 24l-53 2v169h45c35.333 0 63 9 83 27s30 40 30 66c0 33.333 -8.5 58.5 -25.5 75.5s-38.5 25.5 -64.5 25.5
c-20 0 -38.667 -5.66699 -56 -17c-20.667 -14 -31 -32.667 -31 -56l-1 -12h-177v22c0 56 23 108.333 69 157c52 54.667 115 82 189 82c71.333 0 134.833 -24.333 190.5 -73s83.5 -108 83.5 -178c0 -45.333 -5.16699 -82.5 -15.5 -111.5s-27.5 -52.833 -51.5 -71.5l-18 -14
l27 -14c41.333 -20.667 73.333 -55.834 96 -105.501s34 -105.167 34 -166.5z" />
    <glyph glyph-name="four" unicode="4" horiz-adv-x="844" 
d="M778 146h-106v-146l-179 -1v145h-431l-1 147l458 709h154l-1 -686h106v-168zM492 315l-1 377l-238 -377h239z" />
    <glyph glyph-name="five" unicode="5" horiz-adv-x="798" 
d="M739 311c0 -91.333 -33.8301 -170.17 -101.497 -236.503s-146.5 -99.5 -236.5 -99.5s-167.667 29.333 -233 88c-68 60.667 -102 134.667 -102 222v10h172l2 -13c4.66699 -36 21.667 -67.167 51 -93.5s63 -39.5 101 -39.5c48 0 86.667 13.167 116 39.5s47 62.5 53 108.5
c0 4.66699 0.333008 9.83398 1 15.501s1 9.83398 1 12.501c0 39.333 -12.333 75 -37 107c-18.667 24 -39 41.333 -61 52c-14.667 8 -36.334 12 -65.001 12c-24.667 0 -47.834 -4 -69.501 -12s-40.167 -22 -55.5 -42l-9 -12l-157 45l87 525h448l1 -170h-317l-29 -189l18 9
c26 14 64.333 21 115 21c18.667 0 35.167 -1 49.5 -3s28.833 -6 43.5 -12c71.333 -27.333 125.666 -73.666 162.999 -138.999c34 -59.333 51 -128 51 -206z" />
    <glyph glyph-name="six" unicode="6" horiz-adv-x="810" 
d="M751 342c0 -105.333 -31.999 -194 -95.999 -266s-144.333 -108 -241 -108c-92 0 -169.833 30.5 -233.5 91.5s-100.834 139.5 -111.501 235.5c-0.666992 8.66699 -1.16699 16.167 -1.5 22.5s-0.5 11.833 -0.5 16.5c0 42.667 7.33301 84.667 22 126
c12 34.667 30.333 71 55 109l275 431h208l-219 -346l34 5c76.667 0 146 -28.667 208 -86c67.333 -62.667 101 -139.667 101 -231zM572.001 321c0 46.667 -16.168 87.333 -48.501 122s-70.833 52 -115.5 52c-6 -0.666992 -10.333 -1 -13 -1c-44 0 -79.833 -18.333 -107.5 -55
s-41.5 -79 -41.5 -127c0 -44 15.833 -82.833 47.5 -116.5s69.834 -50.5 114.501 -50.5c46 0 84.833 17.5 116.5 52.5s47.5 76.167 47.5 123.5z" />
    <glyph glyph-name="seven" unicode="7" horiz-adv-x="713" 
d="M644 831l-360 -831h-201l373 831h-403v169h591v-169z" />
    <glyph glyph-name="eight" unicode="8" horiz-adv-x="789" 
d="M736 304c0 -88.667 -33.501 -166.166 -100.501 -232.499s-146.167 -99.5 -237.5 -99.5c-84.667 0 -158.667 28.167 -222 84.5s-99.666 125.166 -108.999 206.499c-0.666992 6.66699 -1.16699 14 -1.5 22s-0.5 14 -0.5 18c0 52.667 11.167 100.834 33.5 144.501
s53.5 76.167 93.5 97.5l24 13l-20 18c-26 25.333 -43.333 52.333 -52 81s-13 64.334 -13 107.001c0 71.333 26.667 132 80 182s116.333 75 189 75c74 0 138 -26.667 192 -80s81 -116 81 -188c0 -38.667 -4.66699 -71.834 -14 -99.501s-27 -54.167 -53 -79.5l-18 -17l26 -16
c36.667 -22 66.167 -54.333 88.5 -97s33.5 -89.334 33.5 -140.001zM506.999 745.001c0 28 -10.668 51.6641 -32.001 70.9971s-46.333 29 -75 29s-53.667 -10.667 -75 -32s-32 -46.666 -32 -75.999c0 -28 10.667 -52 32 -72s46.333 -30 75 -30
c4.66699 0.666992 8.33398 1 11.001 1c28 2.66699 51 14.334 69 35.001s27 45.334 27 74.001zM554.998 311.998c0 41.333 -15.332 76.167 -45.999 104.5s-67.334 42.5 -110.001 42.5s-79 -15.667 -109 -47s-45 -68.333 -45 -111c0 -42 15.5 -77.833 46.5 -107.5
s68.167 -44.5 111.5 -44.5s79.5 16 108.5 48s43.5 70.333 43.5 115z" />
    <glyph glyph-name="nine" unicode="9" horiz-adv-x="814" 
d="M749 702c0 -4.66699 0.333984 -10.332 1.00098 -16.999s1 -13.334 1 -20.001c0 -42 -8.33301 -84.667 -25 -128c-12.667 -32.667 -31.667 -69 -57 -109l-276 -428h-208l220 343c-8 -2 -13.667 -3 -17 -3c-4.66699 -0.666992 -10.334 -1 -17.001 -1
c-77.333 0 -148 29 -212 87c-69.333 63.333 -104 140 -104 230c0 104 32.833 192.167 98.5 264.5s147.5 108.5 245.5 108.5c92.667 0 171.5 -30.5 236.5 -91.5s102.833 -139.5 113.5 -235.5zM567.001 686.002c0 44.667 -15.832 83.5 -47.499 116.5
s-69.834 49.5 -114.501 49.5c-46 0 -85 -17.333 -117 -52s-48 -76 -48 -124c0 -47.333 17.667 -88 53 -122s77 -51 125 -51c44.667 4 80.667 23.5 108 58.5s41 76.5 41 124.5z" />
    <glyph glyph-name="colon" unicode=":" 
d="M241 498h-183v180h183v-180zM240 -1h-183v181h183v-181z" />
    <glyph glyph-name="semicolon" unicode=";" 
d="M249 499h-183v180h183v-180zM249 -47c0 -13.333 -4.16699 -28.668 -12.5 -46.001s-16.166 -29.333 -23.499 -36c-16 -15.333 -34.833 -28.666 -56.5 -39.999s-40.834 -17 -57.501 -17h-24l-1 89l9 1c8 0 17.167 2.83301 27.5 8.5s18.833 12.167 25.5 19.5
c10.667 12 16 24 16 36v35h-81v181h178v-231z" />
    <glyph glyph-name="less" unicode="&#x3c;" horiz-adv-x="819" 
d="M758 43l-697 307v136l695 311v-154l-494 -228l496 -221v-151z" />
    <glyph glyph-name="equal" unicode="=" horiz-adv-x="654" 
d="M591 471h-534v129h534v-129zM591 247h-534v129h534v-129z" />
    <glyph glyph-name="greater" unicode="&#x3e;" horiz-adv-x="823" 
d="M758 346l-697 -307v152l496 221l-494 228v153l695 -310v-137z" />
    <glyph glyph-name="question" unicode="?" horiz-adv-x="730" 
d="M646 603c-13.333 -28 -30.335 -53 -51.002 -75c-6 -6.66699 -28.333 -27.667 -67 -63c-29.333 -27.333 -46.666 -45 -51.999 -53c-20 -30 -30 -69.333 -30 -118v-38h-178v38c0 46.667 7 89.667 21 129s37 77.333 69 114c45.333 36.667 77.333 65 96 85s30 42.333 34 67
c2 10 3 19.667 3 29c0 38 -12.833 68.833 -38.5 92.5s-56.834 35.5 -93.501 35.5c-34 0 -61.667 -10.167 -83 -30.5s-33.666 -50.166 -36.999 -89.499l-2 -15l-180 -1l3 36c8 84 42.667 151.667 104 203c58.667 48.667 129.334 73 212.001 73c83.333 0 154 -32 212 -96
c55.333 -60.667 83 -130.334 83 -209.001c0 -40.667 -8.33301 -78.667 -25 -114zM444.998 0h-179v173h179v-173z" />
    <glyph glyph-name="at" unicode="@" horiz-adv-x="975" 
d="M923 545c0 -92 -30.0059 -175.002 -90.0059 -249.002s-130 -111 -210 -111c-34.667 0 -60.667 17 -78 51c-5.33301 11.333 -10.333 28.666 -15 51.999l-37 -43c-32.667 -36.667 -72.667 -55 -120 -55c-50 0 -90.667 19.5 -122 58.5s-47 84.833 -47 137.5
c0 78 32.667 146 98 204c58.667 52 119 78 181 78c24 0 44.5 -4.66699 61.5 -14s28.833 -24 35.5 -44l13 -35l25 78l107 2l-97 -360c-3.33301 -11.333 -5 -22.666 -5 -33.999c0 -8.66699 1.5 -17.667 4.5 -27s9.83301 -14 20.5 -14c50.667 0 97.834 33.833 141.501 101.5
s65.5 138.834 65.5 213.501c0 96.667 -37.667 173.667 -113 231c-69.333 52.667 -153.333 79 -252 79c-107.333 0 -198.666 -37.667 -273.999 -113s-113 -166.666 -113 -273.999c0 -112 38.5 -207.5 115.5 -286.5s170.833 -118.5 281.5 -118.5
c80.667 0 149.667 15.333 207 46c40.667 22 74.334 51 101.001 87l27 47h83l-37 -63c-35.333 -48 -78.666 -87 -129.999 -117c-73.333 -42.667 -157.666 -64 -252.999 -64c-127.333 0 -236.333 45.333 -327 136s-136 200 -136 328c0 126 44.333 233.667 133 323
s196 134 322 134c114.667 0 214.334 -33.333 299.001 -100c89.333 -70.667 134 -159 134 -265zM568.994 524.998c0 33.333 -6.16602 60 -18.499 80s-30.833 30 -55.5 30c-41.333 0 -81.5 -34.333 -120.5 -103s-58.5 -136 -58.5 -202c0 -28.667 6.83301 -53.167 20.5 -73.5
s35.167 -30.5 64.5 -30.5c41.333 0 80.666 37.667 117.999 113c33.333 68 50 130 50 186z" />
    <glyph glyph-name="A" unicode="A" horiz-adv-x="1047" 
d="M1016 0l-202 1l-109 258h-354l-108 -259l-207 1l415 999h143zM633 441l-108 300l-105 -300h213z" />
    <glyph glyph-name="B" unicode="B" horiz-adv-x="772" 
d="M725 254c-18 -86 -60.001 -150.333 -126.001 -193c-62.667 -40.667 -144 -61 -244 -61h-38h-238l-1 1000h186h76c86.667 0 157 -17.333 211 -52c58.667 -37.333 96 -94 112 -170c2.66699 -10.667 4 -23.667 4 -39c0 -35.333 -7 -68 -21 -98
c-16 -34.667 -39.333 -61.667 -70 -81l-20 -13l21 -7c46.667 -16 84.334 -48.667 113.001 -98c26 -44.667 39 -93 39 -145c0 -16 -1.33301 -30.333 -4 -43zM480.999 728c0 36 -16.334 61.667 -49.001 77c-21.333 10 -46.333 15 -75 15h-95v-205h68
c44.667 0 79.334 7.66699 104.001 23c31.333 19.333 47 49.333 47 90zM539.998 319c0 38.667 -16.167 68.167 -48.5 88.5s-69.833 30.5 -112.5 30.5h-115v-258h76c83.333 0 140.333 16.333 171 49c19.333 20.667 29 50.667 29 90z" />
    <glyph glyph-name="C" unicode="C" horiz-adv-x="1106" 
d="M1047 716l-212.999 -0.00390625l-23 25c-30 32.667 -65.5 57.5 -106.5 74.5s-83.833 25.5 -128.5 25.5c-95.333 0 -175 -34.333 -239 -103c-61.333 -66 -92 -146 -92 -240c0 -89.333 30.333 -167.666 91 -234.999c64.667 -72 144.667 -108 240 -108
c44.667 0 86.834 7.83301 126.501 23.5s75.167 40.167 106.5 73.5l17 18h215l-12 -23c-44.667 -85.333 -107.5 -152.666 -188.5 -201.999s-167.833 -74 -260.5 -74c-142 0 -262.667 50 -362 150c-101.333 102 -152 227.667 -152 377c0 148.667 50.167 272.834 150.5 372.501
s220.166 149.5 359.499 149.5c94 0 181.667 -23.667 263 -71s144.666 -113.666 189.999 -198.999z" />
    <glyph glyph-name="D" unicode="D" horiz-adv-x="920" 
d="M796 220c-46 -71.333 -107.668 -125.832 -185.001 -163.499s-164.333 -56.5 -261 -56.5h-94h-180v1000h184h45c62 0 118.333 -4.66699 169 -14c82.667 -15.333 150 -42.333 202 -81c64.667 -48 114.334 -109.333 149.001 -184c32.667 -70.667 49 -146.334 49 -227.001
c0 -50 -6.5 -98.167 -19.5 -144.5s-32.5 -89.5 -58.5 -129.5zM602.999 724.001c-34.667 37.333 -86.334 63.999 -155.001 79.999c-45.333 10.667 -91 16 -137 16h-49l-1 -640h38c73.333 0 124.5 3.5 153.5 10.5s58.5 19.833 88.5 38.5
c50.667 30.667 88.334 69.5 113.001 116.5s37 97.5 37 151.5c0 88.667 -29.333 164.334 -88 227.001z" />
    <glyph glyph-name="E" unicode="E" horiz-adv-x="666" 
d="M620 0h-540v1000h539l1 -180h-352v-230h337v-180h-337l-1 -230h352z" />
    <glyph glyph-name="F" unicode="F" horiz-adv-x="616" 
d="M580 820h-326v-230h307v-180h-307v-410h-188v1000h514v-180z" />
    <glyph glyph-name="G" unicode="G" horiz-adv-x="1199" 
d="M1147 475c1.33301 -7.33301 1.99805 -14.835 1.99805 -22.502v-22.5c0 -127.333 -54 -236 -162 -326c-105.333 -87.333 -228.333 -131 -369 -131c-143.333 0 -269.666 51.333 -378.999 154c-111.333 104.667 -167 229.667 -167 375c0 136 51.333 256 154 360
c106 107.333 232.667 161 380 161c100 0 193.167 -25.667 279.5 -77s153.5 -123 201.5 -215l12 -23h-227l-16 19c-31.333 36.667 -68.833 64.834 -112.5 84.501s-89.5 29.5 -137.5 29.5c-96 0 -177.667 -35 -245 -105c-64.667 -67.333 -97 -145.333 -97 -234
c0 -94 34.833 -175.5 104.5 -244.5s152.834 -103.5 249.501 -103.5c58 0 112.5 14.833 163.5 44.5s90.167 68.834 117.5 117.501l12 21h-421v174l653 1z" />
    <glyph glyph-name="H" unicode="H" horiz-adv-x="844" 
d="M789 0h-186v410h-350v-410h-183v1000h183v-410h350v410h186v-1000z" />
    <glyph glyph-name="I" unicode="I" horiz-adv-x="373" 
d="M282 0h-183v1000h183v-1000z" />
    <glyph glyph-name="J" unicode="J" horiz-adv-x="675" 
d="M597 261c0 -89.333 -29 -160.332 -87 -212.999c-54 -48.667 -121 -73 -201 -73c-68.667 0 -127.667 23 -177 69s-77 103.667 -83 173l-1 12h188l3 -13c4.66699 -18.667 14.334 -32.834 29.001 -42.501s31 -14.5 49 -14.5c23.333 0 43.666 6.66699 60.999 20
c14.667 10.667 24 25.667 28 45c2 10 3 29.667 3 59v717h188v-739z" />
    <glyph glyph-name="K" unicode="K" horiz-adv-x="840" 
d="M802 1000l-378 -492l377 -508h-224l-307 437v-437h-188v1000h185v-431l314 431h221z" />
    <glyph glyph-name="L" unicode="L" horiz-adv-x="638" 
d="M580 0h-497l1 1000h185v-820h311v-180z" />
    <glyph glyph-name="M" unicode="M" horiz-adv-x="1178" 
d="M1111 0h-188v746l-256 -746h-159l-256 741v-741l-189 -1l1 1001h254l268 -764l273 764h252v-1000z" />
    <glyph glyph-name="N" unicode="N" horiz-adv-x="933" 
d="M870 0h-207l-414 725v-725h-185v1000h206l413 -732v732h187v-1000z" />
    <glyph glyph-name="O" unicode="O" horiz-adv-x="1187" 
d="M1119 498c0 -144 -51.001 -267.333 -153.001 -370s-225.333 -154 -370 -154c-143.333 0 -266.666 51.333 -369.999 154s-155 226 -155 370c0 145.333 51.333 269.333 154 372s227 154 373 154c147.333 0 271 -50.333 371 -151s150 -225.667 150 -375zM930.999 498
c0 90 -31.334 168.333 -94.001 235c-64.667 68.667 -143.667 103 -237 103c-96 0 -177.167 -33.167 -243.5 -99.5s-99.5 -145.833 -99.5 -238.5c0 -94 33.333 -173.667 100 -239s146.334 -98 239.001 -98s171.667 33.333 237 100s98 145.667 98 237z" />
    <glyph glyph-name="P" unicode="P" horiz-adv-x="760" 
d="M720 694c0 -84 -26.333 -155.333 -79 -214c-62 -69.333 -148 -104 -258 -104h-120v-376h-186l1 1000h294c106.667 0 192 -30 256 -90c61.333 -57.333 92 -129.333 92 -216zM534 686c0 40.667 -14.167 73.166 -42.5 97.499s-65.833 36.5 -112.5 36.5h-116v-263h105
c48.667 0 88.5 11.833 119.5 35.5s46.5 54.834 46.5 93.501z" />
    <glyph glyph-name="Q" unicode="Q" horiz-adv-x="1212" 
d="M1137 -27c-32.667 0 -59.334 1.5 -80.001 4.5s-45.334 9.16699 -74.001 18.5c-38 14 -73.667 32.333 -107 55c-43.333 -25.333 -90.166 -44.333 -140.499 -57s-100.166 -19 -149.499 -19c-150.667 0 -277 51 -379 153s-153 226.333 -153 373c0 152 54 277.667 162 377
c104 96 230.667 144 380 144c144 0 267.333 -51.333 370 -154s154 -226 154 -370c0 -68.667 -8.83301 -127 -26.5 -175s-48.834 -99 -93.501 -153c6.66699 -4 14.334 -7.66699 23.001 -11s17.5 -6.33301 26.5 -9s20 -4.66699 33 -6s25.167 -2 36.5 -2l18 2v-171zM933 501
c0 90.667 -33.168 170.165 -99.501 238.498s-145.166 102.5 -236.499 102.5c-96.667 0 -180.334 -35.333 -251.001 -106s-106 -152.667 -106 -246l5 -35c22.667 4.66699 45.5 8.33398 68.5 11.001s47.5 4 73.5 4c20.667 0 41.334 -1 62.001 -3s43 -5.33301 67 -10
c64 -13.333 133.333 -42.666 208 -87.999c58 -35.333 100.667 -67 128 -95c36.667 43.333 60 81 70 113c7.33301 23.333 11 61.333 11 114zM720.999 187.998c-20 20.667 -58.6631 45.168 -115.996 73.501s-105 46.166 -143 53.499c-22 4 -41.667 6 -59 6
c-24.667 0 -57.667 -5 -99 -15c23.333 -34 48.666 -60.667 75.999 -80s61.666 -36.333 102.999 -51c20 -6.66699 38.167 -11.5 54.5 -14.5s33.166 -4.5 50.499 -4.5c22.667 0 44.167 2.66699 64.5 8s43.166 13.333 68.499 24z" />
    <glyph glyph-name="R" unicode="R" horiz-adv-x="775" 
d="M753 0l-225.998 -1l-262 381v-380h-189l-1 1000h326c111.333 0 197.666 -33.333 258.999 -100c54 -58.667 81 -131 81 -217c0 -64.667 -19 -125 -57 -181c-40.667 -60.667 -94.334 -101 -161.001 -121l-40 -12zM535.002 591c6 8.66699 11.167 20.668 15.5 36.001
s6.5 30.666 6.5 45.999c0 20 -3.33301 38.833 -10 56.5s-18 33.5 -34 47.5s-30.333 24 -43 30c-18.667 8.66699 -41 13 -67 13h-140v-296h106c47.333 0 82.5 5.16699 105.5 15.5s43.167 27.5 60.5 51.5z" />
    <glyph glyph-name="S" unicode="S" horiz-adv-x="759" 
d="M701 300c0 -88.667 -30.666 -164.836 -91.999 -228.503s-138 -95.5 -230 -95.5c-104.667 0 -187.667 37.333 -249 112c-47.333 58 -71 116 -71 174v19h192v-16c0 -27.333 12.833 -52.5 38.5 -75.5s54.834 -34.5 87.501 -34.5c38 0 70 11.667 96 35
c28.667 25.333 43 58.333 43 99c0 48 -22 86.333 -66 115c-26.667 17.333 -74.834 37.333 -144.501 60s-121.667 59.334 -156 110.001s-51.5 111.334 -51.5 182.001c0 73.333 27.833 135.833 83.5 187.5s121.5 77.5 197.5 77.5s143.667 -25.667 203 -77
c62 -54 93 -118.333 93 -193l1 -17h-191l-1 16c0 22.667 -10.333 43.334 -31 62.001c-22.667 20.667 -49.334 31 -80.001 31c-28 0 -51.167 -9.83301 -69.5 -29.5s-27.5 -40.167 -27.5 -61.5c0 -52.667 22.667 -91 68 -115c15.333 -8 51 -22.333 107 -43
c85.333 -30 147.333 -67.667 186 -113c42.667 -50 64 -110.333 64 -181z" />
    <glyph glyph-name="T" unicode="T" horiz-adv-x="645" 
d="M600 820h-186v-820l-186 -1v821h-183v180h555v-180z" />
    <glyph glyph-name="U" unicode="U" horiz-adv-x="806" 
d="M743 314c0 -99.333 -37 -182.334 -111 -249.001c-67.333 -60.667 -142 -91 -224 -91c-86 0 -161.333 27.667 -226 83c-77.333 66 -116 157 -116 273v33v637h187v-637v-39c0 -54 14.667 -96 44 -126s67.333 -45 114 -45c38 0 71 14.667 99 44
c30.667 32.667 46 74.334 46 125.001l1 64v614h186v-618v-68z" />
    <glyph glyph-name="V" unicode="V" horiz-adv-x="980" 
d="M962 1000l-387 -1000h-151l-388 1000h191l272 -758l269 758h194z" />
    <glyph glyph-name="W" unicode="W" horiz-adv-x="1259" 
d="M1242 1000l-290 -1000h-148l-161 661l-168 -661h-144l-295 1000h190l176 -703l174 703h133l170 -702l174 702h189z" />
    <glyph glyph-name="X" unicode="X" horiz-adv-x="984" 
d="M954 1000l-348 -502l344 -498h-217l-238 341l-238 -341h-216l348 498l-343 502h214l237 -351l238 351h219z" />
    <glyph glyph-name="Y" unicode="Y" horiz-adv-x="899" 
d="M865 1000l-324 -634l-1 -366h-181v365l-324 635h200l217 -461l212 461h201z" />
    <glyph glyph-name="Z" unicode="Z" horiz-adv-x="751" 
d="M683 0h-625l-1 158l380 662h-359v180h578v-165l-377 -655h404v-180z" />
    <glyph glyph-name="bracketleft" unicode="[" horiz-adv-x="425" 
d="M355 -185l-17.002 2.99805c-41.333 8 -77 22.333 -107 43c-25.333 17.333 -53.666 44.666 -84.999 81.999c-36 42 -60.667 96 -74 162c-8.66699 42 -13 92 -13 150l-3 399c0 42.667 11.333 87.334 34 134.001c14 28 32.333 57 55 87c26.667 34 59.334 63.167 98.001 87.5
s70.334 36.5 95.001 36.5l15 1l1 -195l-11 -2c-15.333 0 -35 -16.333 -59 -49c-17.333 -24 -29.333 -56.667 -36 -98c-3.33301 -21.333 -5 -46.666 -5 -75.999v-329c0 -30 2 -61.167 6 -93.5s11.667 -57.833 23 -76.5c9.33301 -15.333 18.333 -27.666 27 -36.999
c13.333 -14.667 27.666 -24 42.999 -28l13 -4v-197z" />
    <glyph glyph-name="backslash" unicode="\" horiz-adv-x="704" 
d="M640 -30h-145l-442 1032h145z" />
    <glyph glyph-name="bracketright" unicode="]" horiz-adv-x="421" 
d="M353 255c0 -57.333 -4.33398 -107 -13.001 -149c-13.333 -66.667 -37.666 -121 -72.999 -163c-30 -35.333 -58.333 -62.333 -85 -81c-31.333 -21.333 -67.333 -36 -108 -44l-16 -3v197l13 4c14 4 28 13.333 42 28c10 10.667 19 23 27 37
c10.667 18 18.334 43.833 23.001 77.5s7 64.5 7 92.5v329c0 29.333 -1.66699 54.333 -5 75c-6.66699 41.333 -19 74.333 -37 99c-11.333 16 -22.166 28.167 -32.499 36.5s-18.833 12.5 -25.5 12.5l-11 2l-3 195l18 -1c25.333 0 57.166 -12 95.499 -36
s71.166 -53.333 98.499 -88c20 -25.333 37.333 -54.333 52 -87c22 -48 33 -92.667 33 -134v-399z" />
    <glyph glyph-name="asciicircum" unicode="^" horiz-adv-x="662" 
d="M603 833h-204l-73 90l-74 -90h-203l204 193h146z" />
    <glyph glyph-name="underscore" unicode="_" horiz-adv-x="866" 
d="M873 -161h-873v82h873v-82z" />
    <glyph glyph-name="grave" unicode="`" horiz-adv-x="400" 
d="M337 981l-53 -93l-229 128l58 102z" />
    <glyph glyph-name="a" unicode="a" horiz-adv-x="920" 
d="M847 0l-166.003 -0.000976562v95l-14 -14c-36 -37.333 -74.333 -64.666 -115 -81.999s-86 -26 -136 -26c-101.333 0 -186.666 38.5 -255.999 115.5s-104 168.167 -104 273.5c0 110 36.833 205.667 110.5 287s163.834 122 270.501 122c44.667 0 86.334 -9 125.001 -27
s73 -46 103 -84l16 -20v107h166v-747zM675.997 339.999c0.666992 5.33301 1.16797 11.501 1.50098 18.501s0.5 12.167 0.5 15.5c0 56 -18 105.333 -54 148s-83 68 -141 76c-12 1.33301 -21.333 2 -28 2c-55.333 0 -104.333 -19.667 -147 -59s-67 -87.666 -73 -144.999
c0 -4.66699 -0.166992 -9.83398 -0.5 -15.501s-0.5 -9.5 -0.5 -11.5c0 -55.333 18.5 -104.833 55.5 -148.5s83.167 -68.834 138.5 -75.501c6 -0.666992 14.667 -1 26 -1c55.333 0 104.166 18.667 146.499 56s67.5 84 75.5 140z" />
    <glyph glyph-name="b" unicode="b" horiz-adv-x="916" 
d="M871 366c0 -106 -36.001 -198 -108.001 -276s-160 -117 -264 -117c-50 0 -93 8.66699 -129 26s-73 46 -111 86l-10 10v-95h-167v1000h183v-328l9 10c24.667 26.667 56 48.5 94 65.5s77.667 25.5 119 25.5c104.667 0 194.834 -40.5 270.501 -121.5
s113.5 -176.167 113.5 -285.5zM693.999 389c0 57.333 -21.5 106.833 -64.5 148.5s-93.5 62.5 -151.5 62.5c-4.66699 0 -9.66699 -0.333008 -15 -1s-9.33301 -1 -12 -1c-58.667 -8.66699 -106.834 -34 -144.501 -76s-56.5 -91 -56.5 -147
c0 -5.33301 0.333008 -10.833 1 -16.5s1 -10.167 1 -13.5c6.66699 -56 31.334 -103 74.001 -141s91.667 -57 147 -57h16c4 0.666992 7 1 9 1c59.333 6.66699 106.833 33 142.5 79s53.5 100 53.5 162z" />
    <glyph glyph-name="c" unicode="c" horiz-adv-x="895" 
d="M836 500l-204 -0.998047l-7 11c-18.667 30 -42 51.667 -70 65s-61.333 20 -100 20c-58 0 -107.333 -22.333 -148 -67s-61 -97.334 -61 -158.001s22 -112.334 66 -155.001s96.667 -64 158 -64c34 0 64.833 7.33301 92.5 22s49.167 34.334 64.5 59.001l6 10h201l-4 -12
c-24 -70.667 -68.333 -130 -133 -178c-68.667 -50.667 -144.334 -76 -227.001 -76c-110 0 -204.5 39.167 -283.5 117.5s-118.5 172.5 -118.5 282.5c0 107.333 38.167 199.5 114.5 276.5s167.833 115.5 274.5 115.5c88.667 0 165.334 -21.833 230.001 -65.5
s112.667 -106.834 144 -189.501z" />
    <glyph glyph-name="d" unicode="d" horiz-adv-x="920" 
d="M842 0h-165.997l-1 95l-9 -10c-37.333 -38.667 -74.5 -67 -111.5 -85s-80.167 -27 -129.5 -27c-102.667 0 -190.334 39 -263.001 117s-109 170 -109 276c0 109.333 37.833 204.5 113.5 285.5s166.167 121.5 271.5 121.5c43.333 0 83.166 -8.16699 119.499 -24.5
s67.166 -38.5 92.499 -66.5l10 -10v328h182v-1000zM672.003 345c0.666992 6.66699 1.16699 12.499 1.5 17.499s0.5 9.16699 0.5 12.5c0 56 -18.667 105 -56 147s-85.666 67.333 -144.999 76c-12 1.33301 -21.333 2 -28 2c-57.333 0 -107.5 -20.833 -150.5 -62.5
s-64.5 -91.167 -64.5 -148.5c0 -61.333 18 -115.166 54 -161.499s83.333 -72.833 142 -79.5c6 -0.666992 14.667 -1 26 -1c55.333 0 104.166 19 146.499 57s66.833 85 73.5 141z" />
    <glyph glyph-name="e" unicode="e" horiz-adv-x="899" 
d="M839 327l-5.00098 -34.999h-580l7 -18c16.667 -40.667 42.334 -71.5 77.001 -92.5s74.667 -31.5 120 -31.5c28.667 0 56.167 5.16699 82.5 15.5s48.833 23.166 67.5 38.499l11 9h193l-8 -21c-20.667 -54 -62.667 -102.333 -126 -145
c-69.333 -46.667 -141.333 -70 -216 -70c-108 0 -200.833 37.5 -278.5 112.5s-116.5 166.167 -116.5 273.5c0 110.667 38.333 205.5 115 284.5s170 118.5 280 118.5s202 -40.667 276 -122c69.333 -76.667 104 -166 104 -268c0 -16.667 -1 -33 -3 -49zM658.999 449.001
l-1.99805 8c-8.66699 34.667 -31.334 65.667 -68.001 93c-39.333 29.333 -82.333 44 -129 44s-88.334 -12.5 -125.001 -37.5s-63 -56.833 -79 -95.5l-5 -12h408z" />
    <glyph glyph-name="f" unicode="f" horiz-adv-x="476" 
d="M435 838l-22 0.00195312c-18 0 -30.833 -0.5 -38.5 -1.5s-15.167 -4.33301 -22.5 -10s-13 -10.834 -17 -15.501c-8.66699 -10.667 -13 -23.334 -13 -38.001l-2 -26h105v-160h-106v-587h-179v587h-67v160h67l1 19c0 24 5.33301 49.5 16 76.5s27.667 53 51 78
s48.5 44.5 75.5 58.5s54.167 21 81.5 21h70v-162z" />
    <glyph glyph-name="g" unicode="g" horiz-adv-x="903" 
d="M828 63c0 -34.667 -7.6709 -71.667 -23.0039 -111c-19.333 -50 -47.666 -94.167 -84.999 -132.5s-80.666 -67.833 -129.999 -88.5s-101.333 -31 -156 -31c-61.333 0 -120.666 13.333 -177.999 40c-44 20 -85.333 51 -124 93c-35.333 38 -55.666 70 -60.999 96l-3 13h199
l7 -6c26.667 -24 53.5 -40.667 80.5 -50s58.833 -14 95.5 -14c53.333 0 99.333 16.667 138 50c44 38 70 93.667 78 167l2 16l-14 -14c-38 -40 -69.333 -67.333 -94 -82c-35.333 -21.333 -76 -32 -122 -32c-104.667 0 -194.5 38.167 -269.5 114.5s-112.5 167.5 -112.5 273.5
c0 110.667 34 205 102 283c72 82 163 123 273 123c47.333 0 91.333 -9.66699 132 -29c46 -22 78 -51.333 96 -88l5 -12v105h164v-684zM656.996 349c0 4.66699 0.333008 9.83203 1 15.499s1 9.83398 1 12.501c0 55.333 -17 103.5 -51 144.5s-80.333 65.5 -139 73.5
c-12 1.33301 -21.333 2 -28 2c-50.667 0 -95.834 -18 -135.501 -54s-64.167 -80.333 -73.5 -133c-2 -12 -3 -23.667 -3 -35c0 -59.333 21.5 -111.833 64.5 -157.5s94.167 -68.5 153.5 -68.5c54.667 0 101.834 19.167 141.501 57.5s62.5 85.833 68.5 142.5z" />
    <glyph glyph-name="h" unicode="h" horiz-adv-x="785" 
d="M727 0l-180 -0.00195312l1 414c0 60.667 -14.167 106.834 -42.5 138.501s-64.5 47.5 -108.5 47.5c-46.667 0 -83.667 -16.667 -111 -50s-41 -79.666 -41 -138.999v-411h-180l-1 1000h180v-309l15 15c45.333 43.333 103.333 65 174 65c14 0 24.667 -0.333008 32 -1
c76.667 -6.66699 139.5 -38.5 188.5 -95.5s73.5 -125.833 73.5 -206.5v-468z" />
    <glyph glyph-name="i" unicode="i" horiz-adv-x="361" 
d="M280 833h-179v167h179v-167zM280 0h-180v747h180v-747z" />
    <glyph glyph-name="j" unicode="j" horiz-adv-x="370" 
d="M277 837h-179v163h179v-163zM277 19c0 -36.667 -4.33301 -70.1699 -13 -100.503s-24 -57.666 -46 -81.999s-46.667 -43.166 -74 -56.499c-33.333 -16 -73 -24 -119 -24v170l15 2c8.66699 0.666992 16.167 2.83398 22.5 6.50098s13 9.16699 20 16.5s11.333 15.333 13 24
s2.5 19 2.5 31v741h179v-728z" />
    <glyph glyph-name="k" unicode="k" horiz-adv-x="806" 
d="M761 0h-241l-253 351v-351h-187v1000h186v-605l240 352h211l-267 -363z" />
    <glyph glyph-name="l" unicode="l" horiz-adv-x="386" 
d="M287 0h-180v1000h180v-1000z" />
    <glyph glyph-name="m" unicode="m" horiz-adv-x="1255" 
d="M1194 0l-180.999 0.00195312v412c0 72 -16.333 122.667 -49 152c-24 21.333 -58.333 32 -103 32c-48 0 -83.333 -15.833 -106 -47.5s-34 -75.834 -34 -132.501v-416h-183v418c0 60 -14.667 105.667 -44 137c-26.667 28 -62 42 -106 42
c-46 0 -80.833 -13.833 -104.5 -41.5s-35.5 -72.834 -35.5 -135.501v-420h-185v747h168l1 -67l9 13c37.333 53.333 96 80 176 80c52 0 96.333 -9.16699 133 -27.5s68.667 -48.5 96 -90.5c61.333 78.667 140.666 118 237.999 118h24c7.33301 -1.33301 12.333 -2 15 -2
c84 -8.66699 149.333 -40 196 -94c50 -58 75 -138.667 75 -242v-435z" />
    <glyph glyph-name="n" unicode="n" horiz-adv-x="781" 
d="M722 0h-178.997v408c0 60.667 -13.667 107.5 -41 140.5s-62.333 49.5 -105 49.5c-48.667 0 -86.834 -15.5 -114.501 -46.5s-41.5 -77.5 -41.5 -139.5v-412h-178v747h164l1 -66l13 15c45.333 50.667 108.666 76 189.999 76s150.166 -28.833 206.499 -86.5
s84.5 -129.167 84.5 -214.5v-471z" />
    <glyph glyph-name="o" unicode="o" horiz-adv-x="916" 
d="M842 371c0 -109.333 -39.834 -202.833 -119.501 -280.5s-174.5 -116.5 -284.5 -116.5c-107.333 0 -198.166 39.333 -272.499 118s-111.5 172.667 -111.5 282c0 108 37.833 200.833 113.5 278.5s167.167 116.5 274.5 116.5c109.333 0 203.333 -39 282 -117
s118 -171.667 118 -281zM664.999 377c0 59.333 -22 109.998 -66 151.998s-96.333 63 -157 63c-59.333 0 -109.5 -21.667 -150.5 -65s-61.5 -95.333 -61.5 -156c0 -61.333 22 -113.666 66 -156.999s96.667 -65 158 -65c58.667 0 108.5 22.833 149.5 68.5
s61.5 98.834 61.5 159.501z" />
    <glyph glyph-name="p" unicode="p" horiz-adv-x="907" 
d="M865 386c0 -110 -37.833 -205.5 -113.5 -286.5s-165.834 -121.5 -270.501 -121.5c-41.333 0 -80.833 8.33301 -118.5 25s-69.167 38.667 -94.5 66l-9 11v-330h-183v998l167 -1v-90l10 10c36 38 72.833 66 110.5 84s80.834 27 129.501 27c104 0 192 -38.667 264 -116
s108 -169.333 108 -276zM688 363c0 61.333 -18 115.167 -54 161.5s-83.333 72.833 -142 79.5c-6 0.666992 -14.667 1 -26 1c-55.333 0 -104.166 -19 -146.499 -57s-66.833 -85 -73.5 -141c-0.666992 -6.66699 -1.16699 -12.5 -1.5 -17.5s-0.5 -9.16699 -0.5 -12.5
c0 -56 18.667 -105 56 -147s85.666 -67.333 144.999 -76c12 -1.33301 21.333 -2 28 -2c57.333 0 107.5 20.833 150.5 62.5s64.5 91.167 64.5 148.5z" />
    <glyph glyph-name="q" unicode="q" horiz-adv-x="912" 
d="M838 -250h-181.999v327l-10 -11c-24 -26.667 -55 -48.667 -93 -66s-77.667 -26 -119 -26c-105.333 0 -195.833 40.5 -271.5 121.5s-113.5 176.5 -113.5 286.5c0 106.667 36.167 198.834 108.5 276.501s160.166 116.5 263.499 116.5c49.333 0 92.5 -8.83301 129.5 -26.5
s74.167 -45.834 111.5 -84.501l9 -10l1 93h166v-997zM668.001 404c-6.66699 56 -31.333 103 -74 141s-91.667 57 -147 57c-11.333 0 -19.666 -0.333008 -24.999 -1c-59.333 -6.66699 -106.833 -33 -142.5 -79s-53.5 -100 -53.5 -162c0 -57.333 21.667 -107 65 -149
s93.666 -63 150.999 -63c4 0 8.83301 0.333008 14.5 1s9.83398 1 12.501 1c59.333 8.66699 107.666 34 144.999 76s56 91.333 56 148v15c-1.33301 6.66699 -2 11.667 -2 15z" />
    <glyph glyph-name="r" unicode="r" horiz-adv-x="485" 
d="M432 599c-19.333 0 -36.333 -2.00195 -51 -6.00195c-30.667 -8 -56.334 -24 -77.001 -48c-10 -12 -17.667 -28.667 -23 -50s-8 -49.666 -8 -84.999v-410h-184v747h167v-65c5.33301 9.33301 12 18.333 20 27l25 25c10.667 10.667 26.834 19.834 48.501 27.501
s43.834 11.5 66.501 11.5c7.33301 -0.666992 12.666 -1 15.999 -1v-173z" />
    <glyph glyph-name="s" unicode="s" horiz-adv-x="662" 
d="M590 241c0 -71.333 -23.1689 -131.498 -69.502 -180.498s-107.5 -76.833 -183.5 -83.5c-4 -0.666992 -8 -1 -12 -1h-12c-68 0 -127.667 23 -179 69c-53.333 48 -80 105.333 -80 172l-1 17h181l2 -9c3.33301 -17.333 12.5 -33.833 27.5 -49.5s31.833 -23.5 50.5 -23.5
c6.66699 -0.666992 11.334 -1 14.001 -1c22.667 0 42.5 5.66699 59.5 17s25.5 26 25.5 44c0 37.333 -20.667 65.333 -62 84c-59.333 19.333 -106 36.333 -140 51c-87.333 39.333 -131 105 -131 197c0 64 24.833 117.5 74.5 160.5s107.834 64.5 174.501 64.5
c62 0 115.5 -19.667 160.5 -59s71.833 -90 80.5 -152l3 -17h-173l-4 9c-13.333 31.333 -37 47 -71 47c-20 0 -36.5 -6.5 -49.5 -19.5s-19.5 -28.833 -19.5 -47.5c0 -26 19.667 -45.667 59 -59l113 -34c56 -22.667 96 -47.334 120 -74.001c28 -30.667 42 -71.334 42 -122.001
z" />
    <glyph glyph-name="t" unicode="t" horiz-adv-x="493" 
d="M439 590h-107v-590h-180l-1 588h-88v159h90v253h180v-253h106v-157z" />
    <glyph glyph-name="u" unicode="u" horiz-adv-x="781" 
d="M732 0h-165.003v67l-13 -15c-21.333 -24 -48.666 -42.833 -81.999 -56.5s-69.666 -20.5 -108.999 -20.5c-82 0 -150.833 28.833 -206.5 86.5s-83.5 129.5 -83.5 215.5v470h179v-407c0 -60.667 13.667 -107.5 41 -140.5s62.333 -49.5 105 -49.5
c48.667 0 86.834 15.167 114.501 45.5s41.5 76.833 41.5 139.5v412h178v-747z" />
    <glyph glyph-name="v" unicode="v" horiz-adv-x="802" 
d="M779 747l-303 -747h-140l-300 747h197l174 -489l172 489h200z" />
    <glyph glyph-name="w" unicode="w" horiz-adv-x="1102" 
d="M1078 747l-273 -747h-111l-142 485l-139 -485h-112l-269 747h190l138 -454l123 454h143l124 -458l136 458h192z" />
    <glyph glyph-name="x" unicode="x" horiz-adv-x="789" 
d="M761 0h-216l-145 242l-145 -242h-219l259 385l-221 362h198l129 -205l123 205h203l-224 -362z" />
    <glyph glyph-name="y" unicode="y" horiz-adv-x="823" 
d="M796 747l-427 -997h-193l137 323l-277 674h205l173 -477l178 477h204z" />
    <glyph glyph-name="z" unicode="z" horiz-adv-x="692" 
d="M636 0h-570v162l328 428h-292v157h510v-159l-328 -424h351z" />
    <glyph glyph-name="braceleft" unicode="{" horiz-adv-x="459" 
d="M389 -174l-13.999 -0.998047c-10.667 -1.33301 -23.334 -2 -38.001 -2c-30.667 0 -55.667 2.66699 -75 8s-37 13 -53 23s-30.167 27.167 -42.5 51.5s-18.5 49.5 -18.5 75.5v316c0 25.333 -8 48 -24 68c-6.66699 8.66699 -14.167 15.667 -22.5 21
s-18.5 10.666 -30.5 15.999l-22 10l22 8c21.333 7.33301 39.5 20.333 54.5 39s22.5 40.667 22.5 66v315c0 25.333 6 50.333 18 75s25.667 41.667 41 51c20 12 41.333 20.333 64 25s45.334 7 68.001 7h25c5.33301 -1.33301 9 -2 11 -2l14 -1l-12 -4
c-12.667 -4.66699 -23.5 -9.83398 -32.5 -15.501s-17.5 -13.5 -25.5 -23.5c-20.667 -24.667 -31 -52.667 -31 -84v-310c0 -18 -2.66699 -36 -8 -54s-15 -34.333 -29 -49c-7.33301 -7.33301 -15.333 -13.833 -24 -19.5s-23.667 -12.167 -45 -19.5l-15 -5l15 -5
c19.333 -7.33301 31.666 -12.333 36.999 -15c11.333 -6 22 -14 32 -24c12.667 -14 22 -30.5 28 -49.5s9 -37.167 9 -54.5v-310c0 -31.333 10.333 -59.333 31 -84c14 -17.333 33.333 -30.333 58 -39z" />
    <glyph glyph-name="bar" unicode="|" 
d="M233 -167h-180v1166h180v-1166z" />
    <glyph glyph-name="braceright" unicode="}" horiz-adv-x="472" 
d="M393 412l-22 -10.0029c-12 -5.33301 -22.333 -10.666 -31 -15.999s-16 -12.333 -22 -21c-8.66699 -11.333 -15 -22 -19 -32s-6 -22 -6 -36l1 -316c0 -26 -6.16699 -51.167 -18.5 -75.5s-26.166 -41.166 -41.499 -50.499c-19.333 -12 -40.333 -20.333 -63 -25
s-45.334 -7 -68.001 -7h-21c-7.33301 1.33301 -12.333 2 -15 2l-14 1l12 4c13.333 4.66699 24.166 9.66699 32.499 15s16.833 13.333 25.5 24c20 23.333 30 51.333 30 84l1 310c0 18 2.66699 36.167 8 54.5s15 34.833 29 49.5c8 8.66699 18.333 16.334 31 23.001
c8 4 20.667 9.33301 38 16l15 5l-15 5c-17.333 6 -30 11 -38 15c-11.333 6 -21.666 14 -30.999 24c-12.667 14 -22 30.5 -28 49.5s-9 36.833 -9 53.5l-1 310c0 32.667 -10 60.667 -30 84c-15.333 18 -34.666 31 -57.999 39l-12 4l14 1c10.667 1.33301 23.334 2 38.001 2
c24 0 46.167 -2 66.5 -6s41.166 -12.667 62.499 -26c15.333 -8.66699 29.166 -25.167 41.499 -49.5s18.5 -49.833 18.5 -76.5l-1 -315c0 -24.667 8.33301 -47.667 25 -69c13.333 -16.667 31 -28.667 53 -36z" />
    <glyph glyph-name="asciitilde" unicode="~" horiz-adv-x="671" 
d="M599 976l-4.00293 -8c-12.667 -26 -25.667 -46.667 -39 -62c-17.333 -20.667 -38 -36.667 -62 -48c-6.66699 -3.33301 -14.834 -6 -24.501 -8s-18.5 -3 -26.5 -3c-28 0 -68 12 -120 36s-88 36 -108 36c-10.667 0 -20.5 -2.16699 -29.5 -6.5s-17.5 -11.166 -25.5 -20.499
c-11.333 -13.333 -17 -20.333 -17 -21c-4.66699 -6.66699 -9.33398 -15 -14.001 -25l-8 -18l-68 82l4 11c2.66699 7.33301 9.33398 19.333 20.001 36c30 45.333 60.333 72.666 91 81.999c18 5.33301 34.667 8 50 8c32.667 0 73.334 -12.5 122.001 -37.5
s81.334 -37.5 98.001 -37.5c12.667 0 24.834 3.66699 36.501 11s22.834 18.333 33.501 33c7.33301 10 13.333 20.333 18 31l5 11z" />
    <glyph glyph-name="nonbreakingspace" unicode="&#xa0;" horiz-adv-x="774" 
 />
    <glyph glyph-name="exclamdown" unicode="&#xa1;" 
d="M237 581h-179v170h179v-170zM236 -252h-176v747h176v-747z" />
    <glyph glyph-name="cent" unicode="&#xa2;" horiz-adv-x="747" 
d="M664 408l-5 -10.9971c-12 -26 -20.667 -44 -26 -54c-12.667 -23.333 -27.5 -43.666 -44.5 -60.999s-36.167 -32 -57.5 -44c-10 -6 -33 -16.667 -69 -32l-14 -6v-140h-161v140l-10 2c-55.333 11.333 -105.666 45 -150.999 101c-48 59.333 -72 123.666 -72 192.999
c0 70.667 20.333 133 61 187s93.667 90.667 159 110l10 3v131h159v-128l12 -4c27.333 -8.66699 49 -17.334 65 -26.001s34 -22 54 -40c25.333 -22.667 45.666 -48.334 60.999 -77.001c9.33301 -18 17 -37.333 23 -58l3 -12h-182l-6 10c-10.667 15.333 -27.5 27.5 -50.5 36.5
s-43.833 13.5 -62.5 13.5c-5.33301 0 -9 -0.333008 -11 -1c-36.667 -7.33301 -65.667 -20.666 -87 -39.999c-26.667 -24.667 -40 -58.334 -40 -101.001c0 -39.333 14.333 -73.333 43 -102s62.667 -43 102 -43c16 0 34.5 5.16699 55.5 15.5s33.833 18.166 38.5 23.499l11 14
h192z" />
    <glyph glyph-name="sterling" unicode="&#xa3;" horiz-adv-x="900" 
d="M816 362c4.66699 -22.667 7.00293 -45.333 7.00293 -68c0 -67.333 -26.667 -131.333 -80 -192c-34 -38 -76.333 -65 -127 -81c-40 -12.667 -87 -19 -141 -19h-362l1 167h14h13h19c40.667 0 74.5 0.5 101.5 1.5s41.167 2.5 42.5 4.5
c6.66699 10.667 12.167 25.834 16.5 45.501s6.5 37.167 6.5 52.5c0 26.667 -8.66699 55.334 -26 86.001c-12.667 23.333 -26.334 41.666 -41.001 54.999l-12 10h-191v167h78l-9 22c-4.66699 10 -8.33398 25.333 -11.001 46s-4 43 -4 67c0 79.333 35.333 149.166 106 209.499
s147.334 90.5 230.001 90.5c76.667 0 146 -29.667 208 -89c58.667 -56 91.667 -117.667 99 -185l1 -14h-182l-2 10c-4.66699 18.667 -13.334 35.167 -26.001 49.5s-27 25.833 -43 34.5c-22.667 12.667 -46.334 19 -71.001 19c-42.667 0 -78.667 -19 -108 -57
c-10.667 -14 -18.667 -29.833 -24 -47.5s-8 -36.5 -8 -56.5c0 -17.333 1.83301 -32.5 5.5 -45.5s9.83398 -25.167 18.501 -36.5l11 -14h287v-170h-146l5 -11c13.333 -29.333 22.166 -55.5 26.499 -78.5s6.5 -49.167 6.5 -78.5l-7 -68l-3 -16h11c32 0 59.5 8 82.5 24
s39.167 38.667 48.5 68c4 12 6 25 6 39c0 9.33301 -0.833008 18.5 -2.5 27.5s-3.5 17.167 -5.5 24.5l-5 20h183z" />
    <glyph glyph-name="yen" unicode="&#xa5;" horiz-adv-x="954" 
d="M891 998l-193 -367h132v-117h-192l-79 -143h260v-119h-258v-251h-188v252h-256v117l258 1l-75 144h-191v116l127 1l-187 366h200l217 -459l219 459h206z" />
    <glyph glyph-name="section" unicode="&#xa7;" horiz-adv-x="760" 
d="M715 355c-4 -32 -17.3311 -64.001 -39.998 -96.001c-14 -20 -30 -37 -48 -51l-13 -10l6 -8c24.667 -26.667 41.5 -53 50.5 -79s13.5 -58.667 13.5 -98c0 -58 -21.333 -109.667 -64 -155c-52.667 -56.667 -126.667 -85 -222 -85c-99.333 0 -180 33.667 -242 101
c-50 54.667 -75 109.334 -75 164.001l-1 24h179l-1 -13c-2.66699 -24 8.16602 -48.167 32.499 -72.5s51.166 -36.5 80.499 -36.5c41.333 0 73.666 6.33301 96.999 19c29.333 16 44 41.667 44 77c0 24 -12 45 -36 63c-14.667 11.333 -47 28.666 -97 51.999
c-59.333 28 -105.666 51.667 -138.999 71c-70 40.667 -116.667 74.334 -140 101.001c-30.667 34.667 -46 79.334 -46 134.001c0 84 28.667 147.333 86 190l26 20l-11 15c-13.333 21.333 -21.5 41.666 -24.5 60.999s-4.5 48 -4.5 86c0 53.333 27.167 100 81.5 140
s114.5 60 180.5 60c75.333 0 140.5 -22.667 195.5 -68s85.833 -104 92.5 -176l1 -16h-171v13c0 20.667 -11.833 38.667 -35.5 54s-51.5 23 -83.5 23c-29.333 0 -52.5 -5.5 -69.5 -16.5s-25.5 -25.833 -25.5 -44.5c-2.66699 -27.333 11.333 -53 42 -77
c8 -6.66699 68.333 -38.334 181 -95.001c72 -35.333 121.667 -66.666 149 -93.999c36 -36 54 -81 54 -135c0 -12.667 -1 -26.667 -3 -42zM551.002 399.999c-6.66699 16 -38.999 40.335 -96.999 73.002c-114.667 65.333 -176.667 95.666 -186 90.999
c-20.667 -18.667 -34.334 -33 -41.001 -43c-10.667 -16.667 -16 -33.334 -16 -50.001c2 -21.333 28.333 -48 79 -80c34 -22 81 -46.667 141 -74c47.333 -22 72.333 -33 75 -33c12 12 24 24.667 36 38s18 27.333 18 42c0 10 -3 22 -9 36z" />
    <glyph glyph-name="dieresis" unicode="&#xa8;" horiz-adv-x="586" 
d="M519 826h-180v164h180v-164zM233 826h-180v164h180v-164z" />
    <glyph glyph-name="copyright" unicode="&#xa9;" horiz-adv-x="1097" 
d="M541 10c-153.333 0 -275 50.667 -365 152c-81.333 91.333 -122 203 -122 335s40.333 243.667 121 335c90 102 212 153 366 153c153.333 0 275 -50.667 365 -152c81.333 -92 122 -204 122 -336s-40.333 -243.667 -121 -335c-90 -101.333 -212 -152 -366 -152zM541 62
c137.333 0 246 45 326 135c72 81.333 108 181.333 108 300c0 118 -36 217.667 -108 299c-80 90.667 -188.667 136 -326 136s-246.333 -45.333 -327 -136c-72.667 -81.333 -109 -181 -109 -299s36.333 -217.667 109 -299c80.667 -90.667 189.667 -136 327 -136zM781 398
c-11.333 -62.667 -40.001 -112.668 -86.001 -150.001s-102.333 -56 -169 -56c-84 0 -146.667 31.333 -188 94c-34.667 52.667 -52 121.667 -52 207c0 84.667 21.333 156 64 214c47.333 64.667 112 97 194 97c57.333 0 107.333 -14.5 150 -43.5s68.334 -69.5 77.001 -121.5
l4 -23h-59l-4 19c-7.33301 36.667 -27.166 65.167 -59.499 85.5s-68.5 30.5 -108.5 30.5c-68.667 0 -120.667 -26.667 -156 -80c-30 -45.333 -45 -104 -45 -176c0 -73.333 11 -129 33 -167c29.333 -50.667 80.666 -80 153.999 -88c4 -0.666992 9.33301 -1 16 -1
c40.667 0 78 15.333 112 46s55.667 68.334 65 113.001h58z" />
    <glyph glyph-name="ordfeminine" unicode="&#xaa;" horiz-adv-x="727" 
d="M659 424l-124.001 -0.000976562v71l-11 -10c-51.333 -54 -114 -81 -188 -81c-76 0 -140 28.833 -192 86.5s-78 126.167 -78 205.5c0 82.667 27.667 154.334 83 215.001s123 91 203 91c34 0 65.333 -6.66699 94 -20s54.334 -34.333 77.001 -63l12 -15v80h124v-560z
M530.999 678.999c1.33301 12 2 20.334 2 25.001c0 42.667 -13.5 79.834 -40.5 111.501s-62.5 50.834 -106.5 57.501c-4.66699 0.666992 -11.667 1 -21 1c-42 0 -78.833 -14.833 -110.5 -44.5s-49.834 -65.834 -54.501 -108.501c-0.666992 -4 -1 -10.333 -1 -19
c0 -42.667 13.833 -80.334 41.5 -113.001s62.5 -51.334 104.5 -56.001c4.66699 -0.666992 11.334 -1 20.001 -1c42 0 78.667 14 110 42s50 63 56 105zM663.999 252h-580v102h580v-102z" />
    <glyph glyph-name="guillemotleft" unicode="&#xab;" horiz-adv-x="761" 
d="M693 527l-202 -144l198 -140v-146l-281 218v140l285 210v-138zM336 527l-201 -144l197 -140v-146l-280 218v140l284 210v-138z" />
    <glyph glyph-name="logicalnot" unicode="&#xac;" horiz-adv-x="1089" 
d="M1023 0h-80v341h-895v75h975v-416z" />
    <glyph glyph-name="registered" unicode="&#xae;" horiz-adv-x="1100" 
d="M541 10c-153.333 0 -275 50.667 -365 152c-81.333 91.333 -122 203 -122 335s40.333 243.667 121 335c90 102 212 153 366 153c153.333 0 275 -50.667 365 -152c81.333 -92 122 -204 122 -336s-40.333 -243.667 -121 -335c-90 -101.333 -212 -152 -366 -152zM541 62
c137.333 0 246 45 326 135c72 81.333 108 181.333 108 300c0 118 -36 217.667 -108 299c-80 90.667 -188.667 136 -326 136s-246.333 -45.333 -327 -136c-72.667 -81.333 -109 -181 -109 -299s36.333 -217.667 109 -299c80.667 -90.667 189.667 -136 327 -136zM774 198
l-60.999 -0.00292969l-5 1c-8 16 -12.833 57.5 -14.5 124.5s-18.167 108.833 -49.5 125.5c-11.333 6 -21.833 9.83301 -31.5 11.5s-22.5 2.5 -38.5 2.5h-18h-156v-265h-57v585h215c62.667 0 111 -9 145 -27c46 -24.667 69 -66.667 69 -126c0 -68.667 -32 -117 -96 -145
c20 -11.333 30.667 -17.666 32 -18.999c10 -7.33301 18 -17.166 24 -29.499s10.5 -26 13.5 -41s4.5 -29.167 4.5 -42.5c0 -6 -0.333008 -15.167 -1 -27.5s-1 -21.833 -1 -28.5c0 -11.333 0.666992 -22.5 2 -33.5s5 -25.5 11 -43.5
c1.33301 -3.33301 2.66602 -6.33301 3.99902 -9c4 -5.33301 7 -9.66602 9 -12.999zM716.001 623.997c0 41.333 -15.667 71 -47 89c-24 14 -58 21 -102 21h-167l1 -222h163c44 0 78.333 7 103 21c32.667 18.667 49 49 49 91z" />
    <glyph glyph-name="degree" unicode="&#xb0;" horiz-adv-x="549" 
d="M275 579c-68.667 0 -123.668 23.332 -165.001 69.999c-37.333 42.667 -56 93.667 -56 153c0 57.333 17.333 105.333 52 144c38.667 43.333 91.667 65 159 65c68.667 0 123.334 -23 164.001 -69c36.667 -41.333 55 -91.666 55 -150.999c0 -58 -17.333 -106.667 -52 -146
c-38.667 -44 -91 -66 -157 -66zM276.999 638.999c49.333 0 88 15.667 116 47c25.333 28.667 38 64.334 38 107.001c0 45.333 -13.667 83.333 -41 114c-30.667 34.667 -72 52 -124 52c-49.333 0 -88 -15.667 -116 -47c-25.333 -28.667 -38 -64.334 -38 -107.001
c0 -45.333 13.667 -83.333 41 -114c30.667 -34.667 72 -52 124 -52z" />
    <glyph glyph-name="plusminus" unicode="&#xb1;" horiz-adv-x="714" 
d="M640 424h-254v-253h-66v253h-252v72h252v253h68v-254h252v-71zM634 -2h-576v55h576v-55z" />
    <glyph glyph-name="acute" unicode="&#xb4;" horiz-adv-x="400" 
d="M334 956l-218 -128l-64 93l224 137z" />
    <glyph glyph-name="mu" unicode="&#xb5;" horiz-adv-x="881" 
d="M848 148l-8.99707 -45.9971c-8 -36.667 -30.667 -68.334 -68 -95.001c-34 -24 -67.333 -36 -100 -36c-5.33301 0 -9.33301 0.333008 -12 1c-33.333 5.33301 -63 21.666 -89 48.999c-28 29.333 -42 62.333 -42 99l-39 -38
c-30.667 -30.667 -63.334 -55.834 -98.001 -75.501s-65.334 -29.5 -92.001 -29.5c-24.667 0 -52.667 7 -84 21c-37.333 16.667 -66 38.667 -86 66v-53c0 -30.667 8.83301 -69.334 26.5 -116.001s26.5 -89 26.5 -127c0 -24.667 -7 -47 -21 -67s-32 -30 -54 -30
c-20.667 0 -37.834 8.83301 -51.501 26.5s-20.5 37.834 -20.5 60.501c0 31.333 3.66699 59.333 11 84c22.667 75.333 34 114 34 116l3 41v746h126v-514c0 -42.667 12.667 -79.834 38 -111.501s57.666 -47.5 96.999 -47.5c40 0 80.333 15.667 121 47c44 34 66 71 66 111v515
h122v-580c0 -29.333 7.5 -57.166 22.5 -83.499s34.167 -39.5 57.5 -39.5c4.66699 0 8.33398 0.333008 11.001 1c33.333 6.66699 55.333 28.667 66 66l11 39h27z" />
    <glyph glyph-name="paragraph" unicode="&#xb6;" horiz-adv-x="815" 
d="M734 -221h-147.001v1072h-111l1 -1074h-139v649h-20c-75.333 0 -138.166 29.333 -188.499 88s-75.5 128 -75.5 208c0 78 29.167 143.833 87.5 197.5s127.833 80.5 208.5 80.5h384v-1221z" />
    <glyph glyph-name="periodcentered" unicode="&#xb7;" horiz-adv-x="311" 
d="M253 402h-183v180h183v-180z" />
    <glyph glyph-name="periodcentered" unicode="&#x2219;" horiz-adv-x="311" 
d="M253 402h-183v180h183v-180z" />
    <glyph glyph-name="ordmasculine" unicode="&#xba;" horiz-adv-x="719" 
d="M653 700c0 -82 -29.668 -152 -89.001 -210s-130.666 -87 -213.999 -87c-80 0 -148 29.667 -204 89s-84 130 -84 212c0 80 28.5 149.167 85.5 207.5s125.5 87.5 205.5 87.5c82 0 152.5 -29.167 211.5 -87.5s88.5 -128.833 88.5 -211.5zM520.999 705
c0 44.667 -16.668 82.667 -50.001 114s-72.666 47 -117.999 47c-44 0 -81.5 -16.167 -112.5 -48.5s-46.5 -71.5 -46.5 -117.5c0 -45.333 16.667 -84.333 50 -117s72.666 -49 117.999 -49c44.667 0 82.334 17 113.001 51s46 74 46 120zM645.998 252h-580v102h580v-102z" />
    <glyph glyph-name="guillemotright" unicode="&#xbb;" horiz-adv-x="769" 
d="M695 315l-280 -218v146l198 140l-202 144v138l284 -210v-140zM339 315l-280 -218v146l197 140l-202 144v138l285 -210v-140z" />
    <glyph glyph-name="questiondown" unicode="&#xbf;" horiz-adv-x="739" 
d="M475 591h-179v173h179v-173zM684 54l-2.99805 -36c-8 -84 -42.667 -151.667 -104 -203c-58.667 -48.667 -129.334 -73 -212.001 -73c-83.333 0 -154 32 -212 96c-55.333 60.667 -83 130.667 -83 210c0 40.667 8.33301 78.667 25 114c13.333 28 30.333 53 51 75
c6 6 28.333 27 67 63c28.667 26 46 43.333 52 52c20 30 30 69.667 30 119v38h178v-38c0 -46.667 -7 -89.834 -21 -129.501s-37 -77.834 -69 -114.501c-10.667 -12 -30 -29 -58 -51c-42 -33.333 -66 -66.666 -72 -99.999c-1.33301 -6.66699 -2 -16 -2 -28
c0 -39.333 12.833 -70.833 38.5 -94.5s56.834 -35.5 93.501 -35.5c33.333 0 60.666 10.333 81.999 31s33.666 50.334 36.999 89.001l2 16h180z" />
    <glyph glyph-name="Agrave" unicode="&#xc0;" horiz-adv-x="1057" 
d="M1032 0l-202 1l-109 258h-354l-108 -259l-207 1l415 999h143zM649 441l-108 300l-105 -300h213zM683 1176l-53 -93l-229 128l58 102z" />
    <glyph glyph-name="Aacute" unicode="&#xc1;" horiz-adv-x="1065" 
d="M1016 0l-202 1l-109 258h-354l-108 -259l-207 1l415 999h143zM633 441l-108 300l-105 -300h213zM664 1211l-218 -128l-64 93l224 137z" />
    <glyph glyph-name="Acircumflex" unicode="&#xc2;" horiz-adv-x="1060" 
d="M1016 0l-202 1l-109 258h-354l-108 -259l-207 1l415 999h143zM633 441l-108 300l-105 -300h213zM808 1083h-204l-73 90l-74 -90h-203l204 193h146z" />
    <glyph glyph-name="Atilde" unicode="&#xc3;" horiz-adv-x="1053" 
d="M808 1233l-4.00293 -8c-12.667 -26 -25.667 -46.667 -39 -62c-17.333 -20.667 -38 -36.667 -62 -48c-6.66699 -3.33301 -14.834 -6 -24.501 -8s-18.5 -3 -26.5 -3c-28 0 -68 12 -120 36s-88 36 -108 36c-10.667 0 -20.5 -2.16699 -29.5 -6.5s-17.5 -11.166 -25.5 -20.499
c-11.333 -13.333 -17 -20.333 -17 -21c-4.66699 -6.66699 -9.33398 -15 -14.001 -25l-8 -18l-68 82l4 11c2.66699 7.33301 9.33398 19.333 20.001 36c30 45.333 60.333 72.666 91 81.999c18 5.33301 34.667 8 50 8c32.667 0 73.334 -12.5 122.001 -37.5
s81.334 -37.5 98.001 -37.5c12.667 0 24.834 3.66699 36.501 11s22.834 18.333 33.501 33c7.33301 10 13.333 20.333 18 31l5 11zM1016 22l-202 1l-109 258h-354l-108 -259l-207 1l415 999h143zM632.997 463l-108 300l-105 -300h213z" />
    <glyph glyph-name="Adieresis" unicode="&#xc4;" horiz-adv-x="1055" 
d="M1016 0l-202 1l-109 258h-354l-108 -259l-207 1l415 999h143zM633 441l-108 300l-105 -300h213zM752 1088h-180v164h180v-164zM466 1088h-180v164h180v-164z" />
    <glyph glyph-name="Aring" unicode="&#xc5;" horiz-adv-x="1055" 
d="M542 1085c-44 0 -79 14.667 -105 44c-23.333 26 -35 58 -35 96c0 36.667 11 67.334 33 92.001c24.667 27.333 58.334 41 101.001 41c44 0 79 -14.667 105 -44c23.333 -26 35 -58 35 -96c0 -36.667 -11 -67.334 -33 -92.001c-24.667 -27.333 -58.334 -41 -101.001 -41z
M540 1172c16.667 0 29.167 4.66699 37.5 14s12.5 21.333 12.5 36c0 14 -4.66699 26.333 -14 37s-22.333 16 -39 16s-29.167 -4.66699 -37.5 -14s-12.5 -21.333 -12.5 -36c0 -14 4.66699 -26.333 14 -37s22.333 -16 39 -16zM1016 0l-202 1l-109 258h-354l-108 -259l-207 1
l415 999h143zM633 441l-108 300l-105 -300h213z" />
    <glyph glyph-name="AE" unicode="&#xc6;" horiz-adv-x="1388" 
d="M1324 821l-352 -2v-230l337 1v-182l-337 1l-1 -229h352v-180h-539v259h-364l-177 -260l-207 1l682 1000h605zM784 441v413l-246 -413h246z" />
    <glyph glyph-name="Ccedilla" unicode="&#xc7;" horiz-adv-x="1102" 
d="M1047 716l-213.002 -0.00488281l-23 25c-30 32.667 -65.5 57.5 -106.5 74.5s-83.833 25.5 -128.5 25.5c-95.333 0 -175 -34.333 -239 -103c-61.333 -66 -92 -146 -92 -240c0 -89.333 30.333 -167.666 91 -234.999c64.667 -72 144.667 -108 240 -108
c44.667 0 86.834 7.83301 126.501 23.5s75.167 40.167 106.5 73.5l17 18h215l-12 -23c-44.667 -85.333 -107.5 -152.666 -188.5 -201.999s-167.833 -74 -260.5 -74l-58 3l-20 -58l15 3c10.667 1.33301 20 2 28 2c10.667 0 20 -0.666992 28 -2s16.667 -4.33301 26 -9
c24.667 -11.333 43.667 -28.166 57 -50.499s20 -47.166 20 -74.499c0 -8.66699 -0.333008 -15 -1 -19c-4 -34 -19.5 -62.167 -46.5 -84.5s-57.5 -33.5 -91.5 -33.5c-6 0.666992 -10.333 1 -13 1c-32.667 2.66699 -59 14.667 -79 36s-30 44 -30 68v6l65 1v-7
c0 -10 5.33301 -19 16 -27s22.667 -12 36 -12c38.667 0 62 18 70 54c1.33301 3.33301 2 6.66602 2 9.99902v10c0 14 -2.66699 25.833 -8 35.5s-11.166 16.334 -17.499 20.001s-13.666 6.5 -21.999 8.5s-15.166 3 -20.499 3c-10 0 -19 -2 -27 -6s-15.667 -11.333 -23 -22
l-7 -10l-67 21l43 148c-112.667 28.667 -205 89 -277 181c-74.667 95.333 -112 205.666 -112 330.999c0 148.667 50.167 272.834 150.5 372.501s220.166 149.5 359.499 149.5c94 0 181.667 -23.667 263 -71s144.666 -113.666 189.999 -198.999z" />
    <glyph glyph-name="Egrave" unicode="&#xc8;" horiz-adv-x="705" 
d="M620 0h-540v1000h539l1 -180h-352v-230h337v-180h-337l-1 -230h352zM502 1176l-53 -93l-229 128l58 102z" />
    <glyph glyph-name="Eacute" unicode="&#xc9;" horiz-adv-x="660" 
d="M620 0h-540v1000h539l1 -180h-352v-230h337v-180h-337l-1 -230h352zM493 1213l-218 -128l-64 93l224 137z" />
    <glyph glyph-name="Ecircumflex" unicode="&#xca;" horiz-adv-x="675" 
d="M620 0h-540v1000h539l1 -180h-352v-230h337v-180h-337l-1 -230h352zM628 1088h-204l-73 90l-74 -90h-203l204 193h146z" />
    <glyph glyph-name="Edieresis" unicode="&#xcb;" horiz-adv-x="695" 
d="M620 0h-540v1000h539l1 -180h-352v-230h337v-180h-337l-1 -230h352zM589 1081h-180v164h180v-164zM303 1081h-180v164h180v-164z" />
    <glyph glyph-name="Igrave" unicode="&#xcc;" horiz-adv-x="395" 
d="M282 0h-183v1000h183v-1000zM337 1176l-53 -93l-229 128l58 102z" />
    <glyph glyph-name="Iacute" unicode="&#xcd;" horiz-adv-x="385" 
d="M282 0h-183v1000h183v-1000zM334 1221l-218 -128l-64 93l224 137z" />
    <glyph glyph-name="Icircumflex" unicode="&#xce;" horiz-adv-x="390" 
d="M282 0h-183v1000h183v-1000zM478 1083h-204l-73 90l-74 -90h-203l204 193h146z" />
    <glyph glyph-name="Idieresis" unicode="&#xcf;" horiz-adv-x="390" 
d="M282 0h-183v1000h183v-1000zM424 1086h-180v164h180v-164zM138 1086h-180v164h180v-164z" />
    <glyph glyph-name="Ntilde" unicode="&#xd1;" horiz-adv-x="930" 
d="M870 0h-207l-414 725v-725h-185v1000h206l413 -732v732h187v-1000zM754 1233l-4.00293 -8c-12.667 -26 -25.667 -46.667 -39 -62c-17.333 -20.667 -38 -36.667 -62 -48c-6.66699 -3.33301 -14.834 -6 -24.501 -8s-18.5 -3 -26.5 -3c-28 0 -68 12 -120 36s-88 36 -108 36
c-10.667 0 -20.5 -2.16699 -29.5 -6.5s-17.5 -11.166 -25.5 -20.499c-11.333 -13.333 -17 -20.333 -17 -21c-4.66699 -6.66699 -9.33398 -15 -14.001 -25l-8 -18l-68 82l4 11c2.66699 7.33301 9.33398 19.333 20.001 36c30 45.333 60.333 72.666 91 81.999
c18 5.33301 34.667 8 50 8c32.667 0 73.334 -12.5 122.001 -37.5s81.334 -37.5 98.001 -37.5c12.667 0 24.834 3.66699 36.501 11s22.834 18.333 33.501 33c7.33301 10 13.333 20.333 18 31l5 11z" />
    <glyph glyph-name="Ograve" unicode="&#xd2;" horiz-adv-x="1180" 
d="M1119 498c0 -144 -51.001 -267.333 -153.001 -370s-225.333 -154 -370 -154c-143.333 0 -266.666 51.333 -369.999 154s-155 226 -155 370c0 145.333 51.333 269.333 154 372s227 154 373 154c147.333 0 271 -50.333 371 -151s150 -225.667 150 -375zM930.999 498
c0 90 -31.334 168.333 -94.001 235c-64.667 68.667 -143.667 103 -237 103c-96 0 -177.167 -33.167 -243.5 -99.5s-99.5 -145.833 -99.5 -238.5c0 -94 33.333 -173.667 100 -239s146.334 -98 239.001 -98s171.667 33.333 237 100s98 145.667 98 237zM726.998 1176l-53 -93
l-229 128l58 102z" />
    <glyph glyph-name="Oacute" unicode="&#xd3;" horiz-adv-x="1175" 
d="M1119 498c0 -144 -51.001 -267.333 -153.001 -370s-225.333 -154 -370 -154c-143.333 0 -266.666 51.333 -369.999 154s-155 226 -155 370c0 145.333 51.333 269.333 154 372s227 154 373 154c147.333 0 271 -50.333 371 -151s150 -225.667 150 -375zM930.999 498
c0 90 -31.334 168.333 -94.001 235c-64.667 68.667 -143.667 103 -237 103c-96 0 -177.167 -33.167 -243.5 -99.5s-99.5 -145.833 -99.5 -238.5c0 -94 33.333 -173.667 100 -239s146.334 -98 239.001 -98s171.667 33.333 237 100s98 145.667 98 237zM733.998 1211l-218 -128
l-64 93l224 137z" />
    <glyph glyph-name="Ocircumflex" unicode="&#xd4;" horiz-adv-x="1180" 
d="M1119 498c0 -144 -51.001 -267.333 -153.001 -370s-225.333 -154 -370 -154c-143.333 0 -266.666 51.333 -369.999 154s-155 226 -155 370c0 145.333 51.333 269.333 154 372s227 154 373 154c147.333 0 271 -50.333 371 -151s150 -225.667 150 -375zM930.999 498
c0 90 -31.334 168.333 -94.001 235c-64.667 68.667 -143.667 103 -237 103c-96 0 -177.167 -33.167 -243.5 -99.5s-99.5 -145.833 -99.5 -238.5c0 -94 33.333 -173.667 100 -239s146.334 -98 239.001 -98s171.667 33.333 237 100s98 145.667 98 237zM877.998 1083h-204
l-73 90l-74 -90h-203l204 193h146z" />
    <glyph glyph-name="Otilde" unicode="&#xd5;" horiz-adv-x="1184" 
d="M878 1235l-4.00293 -8c-12.667 -26 -25.667 -46.667 -39 -62c-17.333 -20.667 -38 -36.667 -62 -48c-6.66699 -3.33301 -14.834 -6 -24.501 -8s-18.5 -3 -26.5 -3c-28 0 -68 12 -120 36s-88 36 -108 36c-10.667 0 -20.5 -2.16699 -29.5 -6.5s-17.5 -11.166 -25.5 -20.499
c-11.333 -13.333 -17 -20.333 -17 -21c-4.66699 -6.66699 -9.33398 -15 -14.001 -25l-8 -18l-68 82l4 11c2.66699 7.33301 9.33398 19.333 20.001 36c30 45.333 60.333 72.666 91 81.999c18 5.33301 34.667 8 50 8c32.667 0 73.334 -12.5 122.001 -37.5
s81.334 -37.5 98.001 -37.5c12.667 0 24.834 3.66699 36.501 11s22.834 18.333 33.501 33c7.33301 10 13.333 20.333 18 31l5 11zM1119 476c0 -144 -51.001 -267.333 -153.001 -370s-225.333 -154 -370 -154c-143.333 0 -266.666 51.333 -369.999 154s-155 226 -155 370
c0 145.333 51.333 269.333 154 372s227 154 373 154c147.333 0 271 -50.333 371 -151s150 -225.667 150 -375zM930.996 476c0 90 -31.334 168.333 -94.001 235c-64.667 68.667 -143.667 103 -237 103c-96 0 -177.167 -33.167 -243.5 -99.5s-99.5 -145.833 -99.5 -238.5
c0 -94 33.333 -173.667 100 -239s146.334 -98 239.001 -98s171.667 33.333 237 100s98 145.667 98 237z" />
    <glyph glyph-name="Odieresis" unicode="&#xd6;" horiz-adv-x="1180" 
d="M1119 498c0 -144 -51.001 -267.333 -153.001 -370s-225.333 -154 -370 -154c-143.333 0 -266.666 51.333 -369.999 154s-155 226 -155 370c0 145.333 51.333 269.333 154 372s227 154 373 154c147.333 0 271 -50.333 371 -151s150 -225.667 150 -375zM930.999 498
c0 90 -31.334 168.333 -94.001 235c-64.667 68.667 -143.667 103 -237 103c-96 0 -177.167 -33.167 -243.5 -99.5s-99.5 -145.833 -99.5 -238.5c0 -94 33.333 -173.667 100 -239s146.334 -98 239.001 -98s171.667 33.333 237 100s98 145.667 98 237zM858.998 1083h-180v164
h180v-164zM572.998 1083h-180v164h180v-164z" />
    <glyph glyph-name=".null" unicode="&#xd7;" horiz-adv-x="0" 
 />
    <glyph glyph-name=".null" unicode="&#x141;" horiz-adv-x="0" 
 />
    <glyph glyph-name=".null" unicode="&#xfd;" horiz-adv-x="0" 
 />
    <glyph glyph-name="Oslash" unicode="&#xd8;" horiz-adv-x="1165" 
d="M1119 498c0 -144 -51.001 -267.334 -153.001 -370.001s-225.333 -154 -370 -154c-40 0 -78.667 4.33301 -116 13s-73.666 21.334 -108.999 38.001l-81 -121l-153 99l86 127c-47.333 48 -84.5 103.833 -111.5 167.5s-40.5 130.5 -40.5 200.5
c0 145.333 51.333 269.333 154 372s227 154 373 154c36 0 70.667 -3.33301 104 -10s65.666 -16.334 96.999 -29.001l77 114l148 -101l-73 -109c52.667 -48.667 93.834 -106.667 123.501 -174s44.5 -139.666 44.5 -216.999zM689.999 822.999
c-26.667 8.66699 -56.667 13 -90 13c-96 0 -177.167 -33.167 -243.5 -99.5s-99.5 -145.833 -99.5 -238.5c0 -40 6.16699 -77.333 18.5 -112s30.5 -67 54.5 -97zM930.999 497.999c0 42.667 -7.5 83.5 -22.5 122.5s-37.167 74.5 -66.5 106.5l-365 -545
c18 -6 37.333 -11 58 -15s41 -6 61 -6c92.667 0 171.667 33.333 237 100s98 145.667 98 237z" />
    <glyph glyph-name="Ugrave" unicode="&#xd9;" horiz-adv-x="815" 
d="M743 314c0 -99.333 -37 -182.334 -111 -249.001c-67.333 -60.667 -142 -91 -224 -91c-86 0 -161.333 27.667 -226 83c-77.333 66 -116 157 -116 273v33v637h187v-637v-39c0 -54 14.667 -96 44 -126s67.333 -45 114 -45c38 0 71 14.667 99 44
c30.667 32.667 46 74.334 46 125.001l1 64v614h186v-618v-68zM557 1171l-53 -93l-229 128l58 102z" />
    <glyph glyph-name="Uacute" unicode="&#xda;" horiz-adv-x="825" 
d="M743 314c0 -99.333 -37 -182.334 -111 -249.001c-67.333 -60.667 -142 -91 -224 -91c-86 0 -161.333 27.667 -226 83c-77.333 66 -116 157 -116 273v33v637h187v-637v-39c0 -54 14.667 -96 44 -126s67.333 -45 114 -45c38 0 71 14.667 99 44
c30.667 32.667 46 74.334 46 125.001l1 64v614h186v-618v-68zM559 1211l-218 -128l-64 93l224 137z" />
    <glyph glyph-name="Ucircumflex" unicode="&#xdb;" horiz-adv-x="825" 
d="M743 314c0 -99.333 -37 -182.334 -111 -249.001c-67.333 -60.667 -142 -91 -224 -91c-86 0 -161.333 27.667 -226 83c-77.333 66 -116 157 -116 273v33v637h187v-637v-39c0 -54 14.667 -96 44 -126s67.333 -45 114 -45c38 0 71 14.667 99 44
c30.667 32.667 46 74.334 46 125.001l1 64v614h186v-618v-68zM683 1078h-204l-73 90l-74 -90h-203l204 193h146z" />
    <glyph glyph-name="Udieresis" unicode="&#xdc;" horiz-adv-x="804" 
d="M743 314c0 -99.333 -37 -182.334 -111 -249.001c-67.333 -60.667 -142 -91 -224 -91c-86 0 -161.333 27.667 -226 83c-77.333 66 -116 157 -116 273v33v637h187v-637v-39c0 -54 14.667 -96 44 -126s67.333 -45 114 -45c38 0 71 14.667 99 44
c30.667 32.667 46 74.334 46 125.001l1 64v614h186v-618v-68zM648 1083h-180v164h180v-164zM362 1083h-180v164h180v-164z" />
    <glyph glyph-name="germandbls" unicode="&#xdf;" horiz-adv-x="844" 
d="M765 391c12.667 -33.333 18.998 -68.667 18.998 -106c0 -63.333 -17.667 -122 -53 -176s-83 -92 -143 -114c-18 -6.66699 -37.167 -11.834 -57.5 -15.501s-43.166 -5.5 -68.499 -5.5c-46.667 0 -88 8.33301 -124 25c-43.333 20 -76.666 51.667 -99.999 95l-13 24l1 -116
h-173v662c0 116 32.667 206.667 98 272c58.667 58.667 131.334 88 218.001 88c71.333 0 136.666 -25.833 195.999 -77.5s89 -112.5 89 -182.5c0 -47.333 -4.33301 -85 -13 -113c-10.667 -34 -30 -61.667 -58 -83l-17 -13l17 -6c54.667 -18 96.667 -41.333 126 -70
c24 -23.333 42.667 -52.666 56 -87.999zM592.998 334.999c-11.333 30 -31.334 52.6641 -60.001 67.9971c-34 18 -85 27 -153 27h-44v155l28 2c38.667 3.33301 68.334 21 89.001 53c16 24.667 24 52.667 24 84c0 34.667 -11.5 63.834 -34.5 87.501s-50.833 35.5 -83.5 35.5
c-47.333 0 -80.333 -16.333 -99 -49c-12.667 -22 -19 -51.667 -19 -89v-455h113l4 -11c10 -30.667 25.5 -54 46.5 -70s44.5 -24 70.5 -24c22.667 0 44.5 5.83301 65.5 17.5s36.833 27.334 47.5 47.001s16 41.5 16 65.5c0 18.667 -3.66699 37.334 -11 56.001z" />
    <glyph glyph-name="agrave" unicode="&#xe0;" horiz-adv-x="926" 
d="M880 0l-166.003 -0.000976562v95l-14 -14c-36 -37.333 -74.333 -64.666 -115 -81.999s-86 -26 -136 -26c-101.333 0 -186.666 38.5 -255.999 115.5s-104 168.167 -104 273.5c0 110 36.833 205.667 110.5 287s163.834 122 270.501 122c44.667 0 86.334 -9 125.001 -27
s73 -46 103 -84l16 -20v107h166v-747zM708.997 339.999c0.666992 5.33301 1.16797 11.501 1.50098 18.501s0.5 12.167 0.5 15.5c0 56 -18 105.333 -54 148s-83 68 -141 76c-12 1.33301 -21.333 2 -28 2c-55.333 0 -104.333 -19.667 -147 -59s-67 -87.666 -73 -144.999
c0 -4.66699 -0.166992 -9.83398 -0.5 -15.501s-0.5 -9.5 -0.5 -11.5c0 -55.333 18.5 -104.833 55.5 -148.5s83.167 -68.834 138.5 -75.501c6 -0.666992 14.667 -1 26 -1c55.333 0 104.166 18.667 146.499 56s67.5 84 75.5 140zM636.998 914l-53 -93l-229 128l58 102z" />
    <glyph glyph-name="aacute" unicode="&#xe1;" horiz-adv-x="930" 
d="M880 0l-166.003 -0.000976562v95l-14 -14c-36 -37.333 -74.333 -64.666 -115 -81.999s-86 -26 -136 -26c-101.333 0 -186.666 38.5 -255.999 115.5s-104 168.167 -104 273.5c0 110 36.833 205.667 110.5 287s163.834 122 270.501 122c44.667 0 86.334 -9 125.001 -27
s73 -46 103 -84l16 -20v107h166v-747zM708.997 339.999c0.666992 5.33301 1.16797 11.501 1.50098 18.501s0.5 12.167 0.5 15.5c0 56 -18 105.333 -54 148s-83 68 -141 76c-12 1.33301 -21.333 2 -28 2c-55.333 0 -104.333 -19.667 -147 -59s-67 -87.666 -73 -144.999
c0 -4.66699 -0.166992 -9.83398 -0.5 -15.501s-0.5 -9.5 -0.5 -11.5c0 -55.333 18.5 -104.833 55.5 -148.5s83.167 -68.834 138.5 -75.501c6 -0.666992 14.667 -1 26 -1c55.333 0 104.166 18.667 146.499 56s67.5 84 75.5 140zM665.998 950l-218 -128l-64 93l224 137z" />
    <glyph glyph-name="acircumflex" unicode="&#xe2;" horiz-adv-x="926" 
d="M880 0l-166.003 -0.000976562v95l-14 -14c-36 -37.333 -74.333 -64.666 -115 -81.999s-86 -26 -136 -26c-101.333 0 -186.666 38.5 -255.999 115.5s-104 168.167 -104 273.5c0 110 36.833 205.667 110.5 287s163.834 122 270.501 122c44.667 0 86.334 -9 125.001 -27
s73 -46 103 -84l16 -20v107h166v-747zM708.997 339.999c0.666992 5.33301 1.16797 11.501 1.50098 18.501s0.5 12.167 0.5 15.5c0 56 -18 105.333 -54 148s-83 68 -141 76c-12 1.33301 -21.333 2 -28 2c-55.333 0 -104.333 -19.667 -147 -59s-67 -87.666 -73 -144.999
c0 -4.66699 -0.166992 -9.83398 -0.5 -15.501s-0.5 -9.5 -0.5 -11.5c0 -55.333 18.5 -104.833 55.5 -148.5s83.167 -68.834 138.5 -75.501c6 -0.666992 14.667 -1 26 -1c55.333 0 104.166 18.667 146.499 56s67.5 84 75.5 140zM785.998 827h-204l-73 90l-74 -90h-203
l204 193h146z" />
    <glyph glyph-name="atilde" unicode="&#xe3;" horiz-adv-x="927" 
d="M880 0l-166.003 -0.000976562v95l-14 -14c-36 -37.333 -74.333 -64.666 -115 -81.999s-86 -26 -136 -26c-101.333 0 -186.666 38.5 -255.999 115.5s-104 168.167 -104 273.5c0 110 36.833 205.667 110.5 287s163.834 122 270.501 122c44.667 0 86.334 -9 125.001 -27
s73 -46 103 -84l16 -20v107h166v-747zM708.997 339.999c0.666992 5.33301 1.16797 11.501 1.50098 18.501s0.5 12.167 0.5 15.5c0 56 -18 105.333 -54 148s-83 68 -141 76c-12 1.33301 -21.333 2 -28 2c-55.333 0 -104.333 -19.667 -147 -59s-67 -87.666 -73 -144.999
c0 -4.66699 -0.166992 -9.83398 -0.5 -15.501s-0.5 -9.5 -0.5 -11.5c0 -55.333 18.5 -104.833 55.5 -148.5s83.167 -68.834 138.5 -75.501c6 -0.666992 14.667 -1 26 -1c55.333 0 104.166 18.667 146.499 56s67.5 84 75.5 140zM778.998 970l-4.00293 -8
c-12.667 -26 -25.667 -46.667 -39 -62c-17.333 -20.667 -38 -36.667 -62 -48c-6.66699 -3.33301 -14.834 -6 -24.501 -8s-18.5 -3 -26.5 -3c-28 0 -68 12 -120 36s-88 36 -108 36c-10.667 0 -20.5 -2.16699 -29.5 -6.5s-17.5 -11.166 -25.5 -20.499
c-11.333 -13.333 -17 -20.333 -17 -21c-4.66699 -6.66699 -9.33398 -15 -14.001 -25l-8 -18l-68 82l4 11c2.66699 7.33301 9.33398 19.333 20.001 36c30 45.333 60.333 72.666 91 81.999c18 5.33301 34.667 8 50 8c32.667 0 73.334 -12.5 122.001 -37.5
s81.334 -37.5 98.001 -37.5c12.667 0 24.834 3.66699 36.501 11s22.834 18.333 33.501 33c7.33301 10 13.333 20.333 18 31l5 11z" />
    <glyph glyph-name="adieresis" unicode="&#xe4;" horiz-adv-x="926" 
d="M847 0l-166.003 -0.000976562v95l-14 -14c-36 -37.333 -74.333 -64.666 -115 -81.999s-86 -26 -136 -26c-101.333 0 -186.666 38.5 -255.999 115.5s-104 168.167 -104 273.5c0 110 36.833 205.667 110.5 287s163.834 122 270.501 122c44.667 0 86.334 -9 125.001 -27
s73 -46 103 -84l16 -20v107h166v-747zM675.997 339.999c0.666992 5.33301 1.16797 11.501 1.50098 18.501s0.5 12.167 0.5 15.5c0 56 -18 105.333 -54 148s-83 68 -141 76c-12 1.33301 -21.333 2 -28 2c-55.333 0 -104.333 -19.667 -147 -59s-67 -87.666 -73 -144.999
c0 -4.66699 -0.166992 -9.83398 -0.5 -15.501s-0.5 -9.5 -0.5 -11.5c0 -55.333 18.5 -104.833 55.5 -148.5s83.167 -68.834 138.5 -75.501c6 -0.666992 14.667 -1 26 -1c55.333 0 104.166 18.667 146.499 56s67.5 84 75.5 140zM729.998 829h-180v164h180v-164zM443.998 829
h-180v164h180v-164z" />
    <glyph glyph-name="aring" unicode="&#xe5;" horiz-adv-x="926" 
d="M438 828c-44 0 -79 14.667 -105 44c-23.333 26 -35 58 -35 96c0 36.667 11 67.334 33 92.001c24.667 27.333 58.334 41 101.001 41c44 0 79 -14.667 105 -44c23.333 -26 35 -58 35 -96c0 -36.667 -11 -67.334 -33 -92.001c-24.667 -27.333 -58.334 -41 -101.001 -41z
M436 915c16.667 0 29.167 4.66699 37.5 14s12.5 21.333 12.5 36c0 14 -4.66699 26.333 -14 37s-22.333 16 -39 16s-29.167 -4.66699 -37.5 -14s-12.5 -21.333 -12.5 -36c0 -14 4.66699 -26.333 14 -37s22.333 -16 39 -16zM847 0l-166.003 -0.000976562v95l-14 -14
c-36 -37.333 -74.333 -64.666 -115 -81.999s-86 -26 -136 -26c-101.333 0 -186.666 38.5 -255.999 115.5s-104 168.167 -104 273.5c0 110 36.833 205.667 110.5 287s163.834 122 270.501 122c44.667 0 86.334 -9 125.001 -27s73 -46 103 -84l16 -20v107h166v-747z
M675.997 339.999c0.666992 5.33301 1.16797 11.501 1.50098 18.501s0.5 12.167 0.5 15.5c0 56 -18 105.333 -54 148s-83 68 -141 76c-12 1.33301 -21.333 2 -28 2c-55.333 0 -104.333 -19.667 -147 -59s-67 -87.666 -73 -144.999
c0 -4.66699 -0.166992 -9.83398 -0.5 -15.501s-0.5 -9.5 -0.5 -11.5c0 -55.333 18.5 -104.833 55.5 -148.5s83.167 -68.834 138.5 -75.501c6 -0.666992 14.667 -1 26 -1c55.333 0 104.166 18.667 146.499 56s67.5 84 75.5 140z" />
    <glyph glyph-name="ae" unicode="&#xe6;" horiz-adv-x="1543" 
d="M1477 327l-5.00293 -35h-580l7 -18c16.667 -40.667 42.334 -71.5 77.001 -92.5s74.667 -31.5 120 -31.5c28.667 0 56.167 5.16699 82.5 15.5s48.833 23.166 67.5 38.499l11 9h193l-8 -21c-20.667 -54 -62.667 -102.333 -126 -145c-69.333 -46.667 -141.333 -70 -216 -70
c-42 0 -82.833 6.33301 -122.5 19s-75.834 30.667 -108.501 54v-50h-166v95l-14 -14c-36 -37.333 -74.333 -64.666 -115 -81.999s-86 -26 -136 -26c-101.333 0 -186.666 38.5 -255.999 115.5s-104 168.167 -104 273.5c0 110 36.833 205.667 110.5 287
s163.834 122 270.501 122c44.667 0 86.334 -9 125.001 -27s73 -46 103 -84l16 -20v107h166v-55c66.667 49.333 143.667 74 231 74c110 0 202 -40.667 276 -122c69.333 -76.667 104 -166 104 -268c0 -16.667 -1 -33 -3 -49zM1297 449l-1.99805 8
c-8.66699 34.667 -31.334 65.667 -68.001 93c-39.333 29.333 -82.333 44 -129 44s-88.334 -12.5 -125.001 -37.5s-63 -56.833 -79 -95.5l-5 -12h408zM697.999 340c0.666992 5.33301 1.16797 11.501 1.50098 18.501s0.5 12.167 0.5 15.5c0 56 -18 105.333 -54 148
s-83 68 -141 76c-12 1.33301 -21.333 2 -28 2c-55.333 0 -104.333 -19.667 -147 -59s-67 -87.666 -73 -144.999c0 -4.66699 -0.166992 -9.83398 -0.5 -15.501s-0.5 -9.5 -0.5 -11.5c0 -55.333 18.5 -104.833 55.5 -148.5s83.167 -68.834 138.5 -75.501
c6 -0.666992 14.667 -1 26 -1c55.333 0 104.166 18.667 146.499 56s67.5 84 75.5 140z" />
    <glyph glyph-name="ccedilla" unicode="&#xe7;" horiz-adv-x="890" 
d="M829 500l-204.004 -1.00098l-7 11c-20 32 -45.167 54.333 -75.5 67s-66.833 19 -109.5 19c-57.333 0 -105.166 -22.667 -143.499 -68s-57.5 -98.333 -57.5 -159c0 -61.333 23 -113.666 69 -156.999s100.333 -65 163 -65c33.333 0 63.833 7.66699 91.5 23
s49.167 36 64.5 62l6 10h201l-4 -12c-16.667 -50.667 -40.334 -92.667 -71.001 -126s-72.334 -63 -125.001 -89c-29.333 -14.667 -58.666 -25.5 -87.999 -32.5s-59.333 -10.5 -90 -10.5l-16 1l-19 -52l16 2c4.66699 0.666992 12.334 1 23.001 1s20.334 -0.666992 29.001 -2
s18.334 -4.33301 29.001 -9c24.667 -11.333 43.834 -28.166 57.501 -50.499s20.5 -46.5 20.5 -72.5c0 -7.33301 -0.333008 -13 -1 -17c-4 -33.333 -19 -61 -45 -83s-56 -33 -90 -33h-12c-33.333 3.33301 -60.5 15.5 -81.5 36.5s-31.5 42.833 -31.5 65.5v7l65 -1l2 -6
c3.33301 -10 9.66602 -18.5 18.999 -25.5s20 -10.5 32 -10.5c36.667 0 59.667 17.667 69 53c2 7.33301 3 14 3 20c0 12.667 -2.83301 22.834 -8.5 30.501s-12.5 14.5 -20.5 20.5c-3.33301 2 -9.33301 4.5 -18 7.5s-16.667 4.5 -24 4.5c-9.33301 0 -18 -2 -26 -6
s-15.333 -10.667 -22 -20l-7 -9l-67 16l40 144l-14 3c-37.333 8.66699 -76.666 27 -117.999 55c-51.333 35.333 -92 77.666 -122 126.999c-37.333 61.333 -56 129.666 -56 204.999c0 107.333 37 200 111 278s164 117 270 117c91.333 0 170.833 -22 238.5 -66
s117.5 -107.333 149.5 -190z" />
    <glyph glyph-name="egrave" unicode="&#xe8;" horiz-adv-x="892" 
d="M839 327l-5.00098 -34.999h-580l7 -18c16.667 -40.667 42.334 -71.5 77.001 -92.5s74.667 -31.5 120 -31.5c28.667 0 56.167 5.16699 82.5 15.5s48.833 23.166 67.5 38.499l11 9h193l-8 -21c-20.667 -54 -62.667 -102.333 -126 -145
c-69.333 -46.667 -141.333 -70 -216 -70c-108 0 -200.833 37.5 -278.5 112.5s-116.5 166.167 -116.5 273.5c0 110.667 38.333 205.5 115 284.5s170 118.5 280 118.5s202 -40.667 276 -122c69.333 -76.667 104 -166 104 -268c0 -16.667 -1 -33 -3 -49zM658.999 449.001
l-1.99805 8c-8.66699 34.667 -31.334 65.667 -68.001 93c-39.333 29.333 -82.333 44 -129 44s-88.334 -12.5 -125.001 -37.5s-63 -56.833 -79 -95.5l-5 -12h408zM600.001 919.001l-53 -93l-229 128l58 102z" />
    <glyph glyph-name="eacute" unicode="&#xe9;" horiz-adv-x="897" 
d="M839 327l-5.00098 -34.999h-580l7 -18c16.667 -40.667 42.334 -71.5 77.001 -92.5s74.667 -31.5 120 -31.5c28.667 0 56.167 5.16699 82.5 15.5s48.833 23.166 67.5 38.499l11 9h193l-8 -21c-20.667 -54 -62.667 -102.333 -126 -145
c-69.333 -46.667 -141.333 -70 -216 -70c-108 0 -200.833 37.5 -278.5 112.5s-116.5 166.167 -116.5 273.5c0 110.667 38.333 205.5 115 284.5s170 118.5 280 118.5s202 -40.667 276 -122c69.333 -76.667 104 -166 104 -268c0 -16.667 -1 -33 -3 -49zM658.999 449.001
l-1.99805 8c-8.66699 34.667 -31.334 65.667 -68.001 93c-39.333 29.333 -82.333 44 -129 44s-88.334 -12.5 -125.001 -37.5s-63 -56.833 -79 -95.5l-5 -12h408zM608.001 951.001l-218 -128l-64 93l224 137z" />
    <glyph glyph-name="ecircumflex" unicode="&#xea;" horiz-adv-x="897" 
d="M839 327l-5.00098 -34.999h-580l7 -18c16.667 -40.667 42.334 -71.5 77.001 -92.5s74.667 -31.5 120 -31.5c28.667 0 56.167 5.16699 82.5 15.5s48.833 23.166 67.5 38.499l11 9h193l-8 -21c-20.667 -54 -62.667 -102.333 -126 -145
c-69.333 -46.667 -141.333 -70 -216 -70c-108 0 -200.833 37.5 -278.5 112.5s-116.5 166.167 -116.5 273.5c0 110.667 38.333 205.5 115 284.5s170 118.5 280 118.5s202 -40.667 276 -122c69.333 -76.667 104 -166 104 -268c0 -16.667 -1 -33 -3 -49zM658.999 449.001
l-1.99805 8c-8.66699 34.667 -31.334 65.667 -68.001 93c-39.333 29.333 -82.333 44 -129 44s-88.334 -12.5 -125.001 -37.5s-63 -56.833 -79 -95.5l-5 -12h408zM761.001 820.001h-204l-73 90l-74 -90h-203l204 193h146z" />
    <glyph glyph-name="edieresis" unicode="&#xeb;" horiz-adv-x="897" 
d="M839 327l-5.00098 -34.999h-580l7 -18c16.667 -40.667 42.334 -71.5 77.001 -92.5s74.667 -31.5 120 -31.5c28.667 0 56.167 5.16699 82.5 15.5s48.833 23.166 67.5 38.499l11 9h193l-8 -21c-20.667 -54 -62.667 -102.333 -126 -145
c-69.333 -46.667 -141.333 -70 -216 -70c-108 0 -200.833 37.5 -278.5 112.5s-116.5 166.167 -116.5 273.5c0 110.667 38.333 205.5 115 284.5s170 118.5 280 118.5s202 -40.667 276 -122c69.333 -76.667 104 -166 104 -268c0 -16.667 -1 -33 -3 -49zM658.999 449.001
l-1.99805 8c-8.66699 34.667 -31.334 65.667 -68.001 93c-39.333 29.333 -82.333 44 -129 44s-88.334 -12.5 -125.001 -37.5s-63 -56.833 -79 -95.5l-5 -12h408zM692.001 831.001h-180v164h180v-164zM406.001 831.001h-180v164h180v-164z" />
    <glyph glyph-name="igrave" unicode="&#xec;" horiz-adv-x="403" 
d="M295 0h-180v750h180v-750zM348 919l-53 -93l-229 128l58 102z" />
    <glyph glyph-name="iacute" unicode="&#xed;" horiz-adv-x="395" 
d="M294 0h-180v750h180v-750zM358 951l-218 -128l-64 93l224 137z" />
    <glyph glyph-name="icircumflex" unicode="&#xee;" horiz-adv-x="448" 
d="M319 0h-180v750h180v-750zM493 820h-204l-73 90l-74 -90h-203l204 193h146z" />
    <glyph glyph-name="idieresis" unicode="&#xef;" horiz-adv-x="448" 
d="M319 0h-180v750h180v-750zM467 831h-180v164h180v-164zM181 831h-180v164h180v-164z" />
    <glyph glyph-name="ntilde" unicode="&#xf1;" horiz-adv-x="791" 
d="M772 0h-178.997v408c0 60.667 -13.667 107.5 -41 140.5s-62.333 49.5 -105 49.5c-48.667 0 -86.834 -15.5 -114.501 -46.5s-41.5 -77.5 -41.5 -139.5v-412h-178v747h164l1 -66l13 15c45.333 50.667 108.666 76 189.999 76s150.166 -28.833 206.499 -86.5
s84.5 -129.167 84.5 -214.5v-471zM716.003 966l-4.00293 -8c-12.667 -26 -25.667 -46.667 -39 -62c-17.333 -20.667 -38 -36.667 -62 -48c-6.66699 -3.33301 -14.834 -6 -24.501 -8s-18.5 -3 -26.5 -3c-28 0 -68 12 -120 36s-88 36 -108 36
c-10.667 0 -20.5 -2.16699 -29.5 -6.5s-17.5 -11.166 -25.5 -20.499c-11.333 -13.333 -17 -20.333 -17 -21c-4.66699 -6.66699 -9.33398 -15 -14.001 -25l-8 -18l-68 82l4 11c2.66699 7.33301 9.33398 19.333 20.001 36c30 45.333 60.333 72.666 91 81.999
c18 5.33301 34.667 8 50 8c32.667 0 73.334 -12.5 122.001 -37.5s81.334 -37.5 98.001 -37.5c12.667 0 24.834 3.66699 36.501 11s22.834 18.333 33.501 33c7.33301 10 13.333 20.333 18 31l5 11z" />
    <glyph glyph-name="ograve" unicode="&#xf2;" horiz-adv-x="918" 
d="M842 371c0 -109.333 -39.834 -202.833 -119.501 -280.5s-174.5 -116.5 -284.5 -116.5c-107.333 0 -198.166 39.333 -272.499 118s-111.5 172.667 -111.5 282c0 108 37.833 200.833 113.5 278.5s167.167 116.5 274.5 116.5c109.333 0 203.333 -39 282 -117
s118 -171.667 118 -281zM664.999 377c0 59.333 -22 109.998 -66 151.998s-96.333 63 -157 63c-59.333 0 -109.5 -21.667 -150.5 -65s-61.5 -95.333 -61.5 -156c0 -61.333 22 -113.666 66 -156.999s96.667 -65 158 -65c58.667 0 108.5 22.833 149.5 68.5
s61.5 98.834 61.5 159.501zM583.999 918.998l-53 -93l-229 128l58 102z" />
    <glyph glyph-name="oacute" unicode="&#xf3;" horiz-adv-x="909" 
d="M858 371c0 -109.333 -39.834 -202.833 -119.501 -280.5s-174.5 -116.5 -284.5 -116.5c-107.333 0 -198.166 39.333 -272.499 118s-111.5 172.667 -111.5 282c0 108 37.833 200.833 113.5 278.5s167.167 116.5 274.5 116.5c109.333 0 203.333 -39 282 -117
s118 -171.667 118 -281zM680.999 377c0 59.333 -22 109.998 -66 151.998s-96.333 63 -157 63c-59.333 0 -109.5 -21.667 -150.5 -65s-61.5 -95.333 -61.5 -156c0 -61.333 22 -113.666 66 -156.999s96.667 -65 158 -65c58.667 0 108.5 22.833 149.5 68.5
s61.5 98.834 61.5 159.501zM632.999 950.998l-218 -128l-64 93l224 137z" />
    <glyph glyph-name="ocircumflex" unicode="&#xf4;" horiz-adv-x="909" 
d="M892 371c0 -109.333 -39.834 -202.833 -119.501 -280.5s-174.5 -116.5 -284.5 -116.5c-107.333 0 -198.166 39.333 -272.499 118s-111.5 172.667 -111.5 282c0 108 37.833 200.833 113.5 278.5s167.167 116.5 274.5 116.5c109.333 0 203.333 -39 282 -117
s118 -171.667 118 -281zM714.999 377c0 59.333 -22 109.998 -66 151.998s-96.333 63 -157 63c-59.333 0 -109.5 -21.667 -150.5 -65s-61.5 -95.333 -61.5 -156c0 -61.333 22 -113.666 66 -156.999s96.667 -65 158 -65c58.667 0 108.5 22.833 149.5 68.5
s61.5 98.834 61.5 159.501zM769.999 824.998h-204l-73 90l-74 -90h-203l204 193h146z" />
    <glyph glyph-name="otilde" unicode="&#xf5;" horiz-adv-x="909" 
d="M842 371c0 -109.333 -39.834 -202.833 -119.501 -280.5s-174.5 -116.5 -284.5 -116.5c-107.333 0 -198.166 39.333 -272.499 118s-111.5 172.667 -111.5 282c0 108 37.833 200.833 113.5 278.5s167.167 116.5 274.5 116.5c109.333 0 203.333 -39 282 -117
s118 -171.667 118 -281zM664.999 377c0 59.333 -22 109.998 -66 151.998s-96.333 63 -157 63c-59.333 0 -109.5 -21.667 -150.5 -65s-61.5 -95.333 -61.5 -156c0 -61.333 22 -113.666 66 -156.999s96.667 -65 158 -65c58.667 0 108.5 22.833 149.5 68.5
s61.5 98.834 61.5 159.501zM727.999 972.998l-4.00293 -8c-12.667 -26 -25.667 -46.667 -39 -62c-17.333 -20.667 -38 -36.667 -62 -48c-6.66699 -3.33301 -14.834 -6 -24.501 -8s-18.5 -3 -26.5 -3c-28 0 -68 12 -120 36s-88 36 -108 36
c-10.667 0 -20.5 -2.16699 -29.5 -6.5s-17.5 -11.166 -25.5 -20.499c-11.333 -13.333 -17 -20.333 -17 -21c-4.66699 -6.66699 -9.33398 -15 -14.001 -25l-8 -18l-68 82l4 11c2.66699 7.33301 9.33398 19.333 20.001 36c30 45.333 60.333 72.666 91 81.999
c18 5.33301 34.667 8 50 8c32.667 0 73.334 -12.5 122.001 -37.5s81.334 -37.5 98.001 -37.5c12.667 0 24.834 3.66699 36.501 11s22.834 18.333 33.501 33c7.33301 10 13.333 20.333 18 31l5 11z" />
    <glyph glyph-name="odieresis" unicode="&#xf6;" horiz-adv-x="914" 
d="M842 371c0 -109.333 -39.834 -202.833 -119.501 -280.5s-174.5 -116.5 -284.5 -116.5c-107.333 0 -198.166 39.333 -272.499 118s-111.5 172.667 -111.5 282c0 108 37.833 200.833 113.5 278.5s167.167 116.5 274.5 116.5c109.333 0 203.333 -39 282 -117
s118 -171.667 118 -281zM664.999 377c0 59.333 -22 109.998 -66 151.998s-96.333 63 -157 63c-59.333 0 -109.5 -21.667 -150.5 -65s-61.5 -95.333 -61.5 -156c0 -61.333 22 -113.666 66 -156.999s96.667 -65 158 -65c58.667 0 108.5 22.833 149.5 68.5
s61.5 98.834 61.5 159.501zM694.999 830.998h-180v164h180v-164zM408.999 830.998h-180v164h180v-164z" />
    <glyph glyph-name="divide" unicode="&#xf7;" horiz-adv-x="933" 
d="M455 569c-28 0 -49.833 8.66699 -65.5 26s-23.5 38.333 -23.5 63c0 24 7.33301 44.167 22 60.5s36 24.5 64 24.5s50.333 -9.33301 67 -28c14.667 -16 22 -36.333 22 -61c0 -24 -7.33301 -44.167 -22 -60.5s-36 -24.5 -64 -24.5zM870 398l-817 1l1 88l816 1v-90zM456 143
c-28 0 -49.833 8.66699 -65.5 26s-23.5 38.333 -23.5 63c0 24 7.33301 44.167 22 60.5s36 24.5 64 24.5s50.333 -9.33301 67 -28c14.667 -16 22 -36.333 22 -61c0 -24 -7.33301 -44.167 -22 -60.5s-36 -24.5 -64 -24.5z" />
    <glyph glyph-name="oslash" unicode="&#xf8;" horiz-adv-x="898" 
d="M834 346c0 -92.667 -37.332 -176.998 -111.999 -252.998s-160 -114 -256 -114c-28 0 -57 3.16699 -87 9.5s-54.333 13.5 -73 21.5l-52 -74l-130 91l47 70c-36 34.667 -63.333 70.667 -82 108c-22.667 44.667 -34 92.334 -34 143.001c0 110 34.667 205.667 104 287
c72 84 160.333 126 265 126c32.667 0 63.667 -2.33301 93 -7s56.666 -12.334 81.999 -23.001l50 78l132 -92l-50 -76c30 -32.667 54.667 -75.334 74 -128.001s29 -108.334 29 -167.001zM501.001 585.002c-17.333 4 -34.667 5.99902 -52 5.99902
c-8.66699 0 -16 -0.333008 -22 -1s-13.333 -1.66699 -22 -3c-44 -9.33301 -82 -30.333 -114 -63c-40 -41.333 -60 -92.333 -60 -153c0 -13.333 1 -27.666 3 -42.999c4.66699 -26.667 17 -54 37 -82zM660 360.001c0 29.333 -1.99805 52.5 -5.99805 69.5
s-12.667 36.5 -26 58.5l-227 -335c12 -2.66699 21.667 -4.66699 29 -6s15.666 -2 24.999 -2h22c7.33301 2 12.333 3.33301 15 4c53.333 12 94.666 37.167 123.999 75.5s44 83.5 44 135.5z" />
    <glyph glyph-name="ugrave" unicode="&#xf9;" horiz-adv-x="783" 
d="M732 0h-165.003v67l-13 -15c-21.333 -24 -48.666 -42.833 -81.999 -56.5s-69.666 -20.5 -108.999 -20.5c-82 0 -150.833 28.833 -206.5 86.5s-83.5 129.5 -83.5 215.5v470h179v-407c0 -60.667 13.667 -107.5 41 -140.5s62.333 -49.5 105 -49.5
c48.667 0 86.834 15.167 114.501 45.5s41.5 76.833 41.5 139.5v412h178v-747zM552.997 919l-53 -93l-229 128l58 102z" />
    <glyph glyph-name="uacute" unicode="&#xfa;" horiz-adv-x="779" 
d="M699 0h-165.003v67l-13 -15c-21.333 -24 -48.666 -42.833 -81.999 -56.5s-69.666 -20.5 -108.999 -20.5c-82 0 -150.833 28.833 -206.5 86.5s-83.5 129.5 -83.5 215.5v470h179v-407c0 -60.667 13.667 -107.5 41 -140.5s62.333 -49.5 105 -49.5
c48.667 0 86.834 15.167 114.501 45.5s41.5 76.833 41.5 139.5v412h178v-747zM520.997 951l-218 -128l-64 93l224 137z" />
    <glyph glyph-name="ucircumflex" unicode="&#xfb;" horiz-adv-x="787" 
d="M732 0h-165.003v67l-13 -15c-21.333 -24 -48.666 -42.833 -81.999 -56.5s-69.666 -20.5 -108.999 -20.5c-82 0 -150.833 28.833 -206.5 86.5s-83.5 129.5 -83.5 215.5v470h179v-407c0 -60.667 13.667 -107.5 41 -140.5s62.333 -49.5 105 -49.5
c48.667 0 86.834 15.167 114.501 45.5s41.5 76.833 41.5 139.5v412h178v-747zM688.997 832h-204l-73 90l-74 -90h-203l204 193h146z" />
    <glyph glyph-name="udieresis" unicode="&#xfc;" horiz-adv-x="786" 
d="M732 0h-165.003v67l-13 -15c-21.333 -24 -48.666 -42.833 -81.999 -56.5s-69.666 -20.5 -108.999 -20.5c-82 0 -150.833 28.833 -206.5 86.5s-83.5 129.5 -83.5 215.5v470h179v-407c0 -60.667 13.667 -107.5 41 -140.5s62.333 -49.5 105 -49.5
c48.667 0 86.834 15.167 114.501 45.5s41.5 76.833 41.5 139.5v412h178v-747zM638.997 825h-180v164h180v-164zM352.997 825h-180v164h180v-164z" />
    <glyph glyph-name="ydieresis" unicode="&#xff;" horiz-adv-x="825" 
d="M796 747l-427 -997h-193l137 323l-277 674h205l173 -477l178 477h204zM653 826h-180v164h180v-164zM367 826h-180v164h180v-164z" />
    <glyph glyph-name="OE" unicode="&#x152;" horiz-adv-x="1531" 
d="M1465 0l-540.002 0.000976562v106c-48 -42 -101.167 -74.5 -159.5 -97.5s-120.166 -34.5 -185.499 -34.5c-143.333 0 -266.666 51.333 -369.999 154s-155 226 -155 370c0 146 52.5 270.167 157.5 372.5s231.833 153.5 380.5 153.5c62 0 121.333 -11.333 178 -34
s108 -54.334 154 -95.001v105h539l1 -180h-352v-230h337v-180h-337l-1 -230h352zM914.998 511.001c0 87.333 -32.333 163.333 -97 228s-139 97 -223 97c-100.667 0 -184.834 -33.167 -252.501 -99.5s-101.5 -145.833 -101.5 -238.5c0 -93.333 32.833 -172.833 98.5 -238.5
s145.834 -98.5 240.501 -98.5c93.333 0 172.5 34.167 237.5 102.5s97.5 150.833 97.5 247.5z" />
    <glyph glyph-name="oe" unicode="&#x153;" horiz-adv-x="1519" 
d="M1502 349l-5 -34.999h-580l7 -18c16.667 -40.667 42.334 -71.5 77.001 -92.5s74.667 -31.5 120 -31.5c28.667 0 56.167 5.16699 82.5 15.5s48.833 23.166 67.5 38.499l11 9h193l-8 -21c-20.667 -54 -62.667 -102.333 -126 -145c-69.333 -46.667 -141.333 -70 -216 -70
c-62.667 0 -121.5 13.833 -176.5 41.5s-100.833 65.5 -137.5 113.5c-38 -49.333 -85.167 -88 -141.5 -116s-116.833 -42 -181.5 -42c-107.333 0 -198.166 39.333 -272.499 118s-111.5 172.667 -111.5 282c0 108 37.833 200.833 113.5 278.5s167.167 116.5 274.5 116.5
c64 0 123.667 -13.833 179 -41.5s102 -66.5 140 -116.5c37.333 48 83.166 85.833 137.499 113.5s113.166 41.5 176.499 41.5c110 0 202 -40.667 276 -122c69.333 -76.667 104 -166 104 -268c0 -16.667 -1 -33 -3 -49zM1322 471.001l-1.99805 8
c-8.66699 34.667 -31.334 65.667 -68.001 93c-39.333 29.333 -82.333 44 -129 44s-88.334 -12.5 -125.001 -37.5s-63 -56.833 -79 -95.5l-5 -12h408zM715.002 399.001c0 59.333 -22 109.998 -66 151.998s-96.333 63 -157 63c-59.333 0 -109.5 -21.667 -150.5 -65
s-61.5 -95.333 -61.5 -156c0 -61.333 22 -113.666 66 -156.999s96.667 -65 158 -65c58.667 0 108.5 22.833 149.5 68.5s61.5 98.834 61.5 159.501z" />
    <glyph glyph-name="Ydieresis" unicode="&#x178;" horiz-adv-x="1000" 
d="M865 1000l-324 -634l-1 -366h-181v365l-324 635h200l217 -461l212 461h201zM694 1086h-180v164h180v-164zM408 1086h-180v164h180v-164z" />
    <glyph glyph-name="florin" unicode="&#x192;" horiz-adv-x="713" 
d="M647 1040c-12.667 -33.333 -36.332 -50.002 -70.999 -50.002c-8 0 -15.667 3.33301 -23 10c-12 10.667 -19 16.667 -21 18c-4.66699 2.66699 -9 4 -13 4c-19.333 0 -34.333 -50 -45 -150c-6.66699 -64 -13.334 -109.333 -20.001 -136l-7 -28h134l-7 -55h-142l-82 -407
c-12 -61.333 -25.333 -115.666 -40 -162.999c-23.333 -74.667 -48.666 -133 -75.999 -175c-35.333 -54 -74.333 -81 -117 -81h-18c-6 2 -10.333 3.33301 -13 4c-10.667 3.33301 -19.834 9.83301 -27.501 19.5s-11.5 20.167 -11.5 31.5c0 2.66699 0.666992 6.66699 2 12
c5.33301 15.333 13.333 27.5 24 36.5s23.667 13.5 39 13.5c12 0 21.333 -5.83301 28 -17.5s13 -18.5 19 -20.5c18.667 -6 35.334 11 50.001 51c5.33301 14 22 89.667 50 227l94 470h-148l3 56h165l8 36c13.333 62.667 27.666 116.334 42.999 161.001
c20.667 60 43 106 67 138c28.667 38.667 60 58 94 58c16 0 30.667 -5.16699 44 -15.5s20 -22.5 20 -36.5c0 -2 -0.666992 -5.66699 -2 -11z" />
    <glyph glyph-name="summation" unicode="&#x3a3;" horiz-adv-x="1084" 
d="M1010 147c-9.33301 -26.667 -17.334 -53.1689 -24.001 -79.502s-12.167 -51.333 -16.5 -75s-8.16602 -47.167 -11.499 -70.5s-5 -51.666 -5 -84.999l-99 20h-802l497 546l-488 609l90 -9h759l2 -223h-29c0 26.667 -3.83301 49.334 -11.5 68.001s-21 36.5 -40 53.5
s-38.167 27.667 -57.5 32s-46 6.5 -80 6.5h-410l394 -475l-422 -475h563c31.333 0 62.333 11.333 93 34c44.667 34 67 75 67 123h31z" />
    <glyph glyph-name="Omega" unicode="&#x3a9;" horiz-adv-x="1077" 
d="M1008 -3l-399.001 0.00195312l20 198c64 29.333 111.333 71.333 142 126s46 119.334 46 194.001c0 92.667 -17.333 162 -52 208c-44.667 59.333 -121.667 89 -231 89c-102 0 -177.333 -29.333 -226 -88c-42 -50.667 -63 -120.334 -63 -209.001
c0 -74 15.5 -138.5 46.5 -193.5s78.5 -97.167 142.5 -126.5l19 -198h-399v209h26c0 -10.667 0.666992 -19.334 2 -26.001s4.66602 -13.667 9.99902 -21c8 -12 18 -20.667 30 -26s25.667 -8 41 -8h219v40c-87.333 15.333 -157.666 55.5 -210.999 120.5s-80 142.167 -80 231.5
c0 104.667 41.667 187.334 125 248.001c80 58 185.333 87 316 87c136 0 243.333 -29.333 322 -88s118 -141 118 -247c0 -89.333 -26.833 -166.5 -80.5 -231.5s-124.167 -105.167 -211.5 -120.5v-40h219c16 0 29.667 2.5 41 7.5s21.333 13.833 30 26.5
c4.66699 7.33301 7.83398 14.166 9.50098 20.499s2.5 15.166 2.5 26.499h26v-209z" />
    <glyph glyph-name="pi" unicode="&#x3c0;" horiz-adv-x="912" 
d="M844 241l-4.00098 -33.9961c-7.33301 -58 -28 -106.333 -62 -145c-36.667 -42 -81.334 -63 -134.001 -63c-47.333 0 -82.333 23.667 -105 71c-18.667 39.333 -28 91 -28 155v30.5c0 8.33301 1.33301 21.5 4 39.5l35 327h-178l-62 -484
c-4.66699 -38.667 -15 -71.334 -31 -98.001c-19.333 -32.667 -42.666 -49 -69.999 -49c-6 0 -12.667 1 -20 3c-17.333 5.33301 -30.666 11.333 -39.999 18c-12 8.66699 -19.5 18.667 -22.5 30s-4.5 20.666 -4.5 27.999c0 19.333 7.66699 37.666 23 54.999
c46 52 70 80.667 72 86c8.66699 21.333 15 37.333 19 48s6.33301 20 7 28l35 329h-50c-12 0 -23.667 -0.166992 -35 -0.5s-24.333 -3.33301 -39 -9s-30.667 -18.834 -48 -39.501c-14 -16.667 -22.667 -30 -26 -40l-25 10l9 21c24 54.667 39 87 45 97
c18 30 42.667 52.833 74 68.5s64.333 23.5 99 23.5h552v-125h-200l-20 -365c0 -34 9 -64.167 27 -90.5s42 -39.5 72 -39.5c24.667 0 45 8 61 24s27.333 37.333 34 64l7 26h29z" />
    <glyph glyph-name="endash" unicode="&#x2013;" horiz-adv-x="624" 
d="M567 355h-514v174h514v-174z" />
    <glyph glyph-name="emdash" unicode="&#x2014;" horiz-adv-x="1133" 
d="M1081 356l-1028 -1v174h1027z" />
    <glyph glyph-name="quoteleft" unicode="&#x2018;" horiz-adv-x="351" 
d="M291 734h-101l-118 261h99z" />
    <glyph glyph-name="quoteright" unicode="&#x2019;" horiz-adv-x="346" 
d="M301 995l-129 -286h-111l132 286h108z" />
    <glyph glyph-name="quotesinglbase" unicode="&#x201a;" horiz-adv-x="346" 
d="M301 53l-129 -286h-111l132 286h108z" />
    <glyph glyph-name="quotedblleft" unicode="&#x201c;" horiz-adv-x="578" 
d="M524 709h-111l-129 286h109zM303 709h-111l-129 286h109z" />
    <glyph glyph-name="quotedblright" unicode="&#x201d;" horiz-adv-x="545" 
d="M523 995l-130 -286h-110l131 286h109zM301 995l-129 -286h-111l132 286h108z" />
    <glyph glyph-name="quotedblbase" unicode="&#x201e;" horiz-adv-x="545" 
d="M523 53l-130 -286h-110l131 286h109zM301 53l-129 -286h-111l132 286h108z" />
    <glyph glyph-name="dagger" unicode="&#x2020;" horiz-adv-x="730" 
d="M667 618h-211v-768h-192v768h-211v156h211v253h189v-250h214v-159z" />
    <glyph glyph-name="bullet" unicode="&#x2022;" horiz-adv-x="540" 
d="M272 708c64.667 0 115.332 -20.999 151.999 -62.999c33.333 -38 50 -85.333 50 -142c0 -58.667 -18 -109 -54 -151c-40 -46.667 -93.667 -70 -161 -70c-65.333 0 -117 21.333 -155 64c-34 38 -51 85.333 -51 142c0 59.333 18.333 109.666 55 150.999
c40.667 46 95.334 69 164.001 69z" />
    <glyph glyph-name="ellipsis" unicode="&#x2026;" horiz-adv-x="597" 
d="M544 -1h-97v121h97v-121zM345 -1h-97v121h97v-121zM152 -1h-97v121h97v-121z" />
    <glyph glyph-name="trademark" unicode="&#x2122;" horiz-adv-x="957" 
d="M400 963h-153v-447h-47v447h-151v41h351v-41zM890 516h-47v431l-161 -430h-43l-155 432v-433h-48v485h74l153 -426l157 425h70v-484z" />
    <glyph glyph-name="partialdiff" unicode="&#x2202;" horiz-adv-x="745" 
d="M677 544c0 -140 -28.998 -266.333 -86.998 -379c-65.333 -127.333 -148.666 -191 -249.999 -191c-10 0 -17.667 0.333008 -23 1c-82.667 8 -146.834 36.833 -192.501 86.5s-68.5 112.167 -68.5 187.5c0 82.667 26.833 154.5 80.5 215.5s119.834 91.5 198.501 91.5
c34 0 65 -5.66699 93 -17c22 -8.66699 49.667 -24.667 83 -48l42 -30l11 70c2 14.667 3.66699 29 5 43s2 28.333 2 43c0 94 -19.667 174 -59 240c-44.667 74.667 -105.334 112 -182.001 112c-23.333 0 -46.333 -3.83301 -69 -11.5l-67 -23.5l-26 -7l-52 65l59 17
c25.333 8 47.666 13.5 66.999 16.5s40.666 4.5 63.999 4.5c112 0 203.333 -51.333 274 -154c64.667 -94 97 -204.667 97 -332zM543.002 409l-37.999 36c-27.333 26.667 -58 43.334 -92 50.001c-11.333 2 -22.333 3 -33 3c-46 0 -87 -19.667 -123 -59
c-32.667 -35.333 -56.334 -80.333 -71.001 -135c-8.66699 -32.667 -13 -63 -13 -91c0 -48 10.167 -89.833 30.5 -125.5s50.833 -59.834 91.5 -72.501c13.333 -4 26 -6 38 -6c49.333 0 91.666 33 126.999 99c26.667 50.667 47.334 115 62.001 193z" />
    <glyph glyph-name="Delta" unicode="&#x2206;" horiz-adv-x="1010" 
d="M955 -1h-896l478 1005zM778 65l-296 701l-329 -701h625z" />
    <glyph glyph-name="product" unicode="&#x220f;" horiz-adv-x="1224" 
d="M1152 -147l-436.999 0.000976562v25l36 2c20.667 0 36.167 1.33301 46.5 4s20.5 8.83398 30.5 18.501s16.333 19.5 19 29.5s4 23 4 39v27v923h-511v-914c0 -29.333 1.83301 -51.166 5.5 -65.499s13.834 -27.833 30.501 -40.5c11.333 -8.66699 22.166 -14 32.499 -16
s26.5 -3 48.5 -3h27v-29h-437v30h35c20.667 0 35.667 1 45 3s20 7.66699 32 17c14.667 11.333 24 26.666 28 45.999c2 10 3 30 3 60v831c0 41.333 -15 74.666 -45 99.999c-12.667 10.667 -22.667 18 -30 22c-11.333 6 -23.333 9 -36 9l-24 2v29h1097v-31l-31 -1
c-13.333 0 -24.5 -2.16699 -33.5 -6.5s-19.833 -11.5 -32.5 -21.5c-17.333 -14 -29 -30.833 -35 -50.5s-9 -43.5 -9 -71.5v-824c0 -20.667 0.833008 -37.834 2.5 -51.501s10.5 -27.5 26.5 -41.5c10.667 -10 22.167 -16.833 34.5 -20.5s27.166 -5.5 44.499 -5.5l33 -2v-22z
" />
    <glyph glyph-name="radical" unicode="&#x221a;" horiz-adv-x="738" 
d="M679 1088l-187 -1152l-307 609l-117 -60l-19 41l180 84l247 -485l161 969z" />
    <glyph glyph-name="infinity" unicode="&#x221e;" horiz-adv-x="1123" 
d="M1049 353c0 -64.667 -21.001 -117.667 -63.001 -159c-39.333 -38.667 -86.666 -58 -141.999 -58c-35.333 0 -73.666 8.33301 -114.999 25s-79 40.667 -113 72l-64 61l-65 -61c-34 -31.333 -71.5 -55.333 -112.5 -72s-79.5 -25 -115.5 -25
c-54.667 0 -101.667 19.333 -141 58c-42.667 42 -64 95 -64 159c0 55.333 20.667 102.333 62 141s90.333 58 147 58c34.667 0 69.5 -8.16699 104.5 -24.5s69.5 -39.5 103.5 -69.5l80 -72l81 72c33.333 30 67.666 53.167 102.999 69.5s70.333 24.5 105 24.5
c56.667 0 105.667 -19.333 147 -58s62 -85.667 62 -141zM975.999 347c0 37.333 -13.499 68.167 -40.499 92.5s-60.833 36.5 -101.5 36.5c-32 0 -62.333 -8.33301 -91 -25c-9.33301 -5.33301 -26.333 -17.333 -51 -36l-96 -72l89 -83c22 -20 44.667 -34.333 68 -43
s50 -13 80 -13c41.333 0 75.666 12.667 102.999 38s41 56.333 41 93c-0.666992 5.33301 -1 9.33301 -1 12zM507 343.001l-97 71.999c-30 22 -52 36.667 -66 44c-23.333 11.333 -48.666 17 -75.999 17c-39.333 0 -72.833 -12.167 -100.5 -36.5s-41.5 -55.166 -41.5 -92.499
c0 -40 13.167 -73.833 39.5 -101.5s61.166 -41.5 104.499 -41.5c31.333 0 58 4.16699 80 12.5s44.333 22.833 67 43.5z" />
    <glyph glyph-name="integral" unicode="&#x222b;" horiz-adv-x="460" 
d="M395 1048c-2 -14.667 -8.33203 -26.667 -18.999 -36s-23.667 -14 -39 -14c-8.66699 0 -19 5 -31 15c-6.66699 6 -12.667 10.167 -18 12.5s-9.66602 3.5 -12.999 3.5c-7.33301 0 -12.666 -6 -15.999 -18s-5 -28.333 -5 -49c0 -26 1.66699 -58 5 -96
c8.66699 -98.667 13 -156.334 13 -173.001v-421c0 -106.667 -6.66699 -192 -20 -256c-22.667 -108 -62.334 -162 -119.001 -162h-10c-4.66699 0.666992 -12.167 2.33398 -22.5 5.00098s-20.833 9.83398 -31.5 21.501s-16 24.167 -16 37.5c0 14.667 5 27 15 37s22 15 36 15
c11.333 0 23 -7.33301 35 -22c6.66699 -8.66699 13.667 -14 21 -16c15.333 -4 25.666 4.33301 30.999 25s8 52 8 94c0 18 -0.666992 45.333 -2 82s-2 62.667 -2 78v584c0 115.333 12 198.666 36 249.999c20.667 44 50 66 88 66c20.667 0 39.167 -6 55.5 -18
s23.166 -27 20.499 -45z" />
    <glyph glyph-name="approxequal" unicode="&#x2248;" horiz-adv-x="918" 
d="M850 522l-29 -33c-26.667 -30 -54.334 -52 -83.001 -66s-62 -21 -100 -21c-27.333 0 -56.666 5.16699 -87.999 15.5s-51.666 16.833 -60.999 19.5l-121 34l-51 14c-17.333 4.66699 -32.666 7 -45.999 7c-8.66699 0 -18.667 -1 -30 -3
c-41.333 -8.66699 -77 -29.334 -107 -62.001l-25 -26l-63 41l21 22c26 28 51.667 48.833 77 62.5s56.666 23.5 93.999 29.5c14 2.66699 28.667 4 44 4c20.667 0 44 -3.33301 70 -10l46 -13l107 -32c21.333 -7.33301 42.666 -14.166 63.999 -20.499s43.333 -9.5 66 -9.5
c32 2.66699 57 7.66699 75 15s36.333 21 55 41l27 28zM850 287l-29.0029 -33.998c-49.333 -57.333 -110.333 -86 -183 -86c-27.333 0 -56.666 5.16699 -87.999 15.5s-51.666 16.833 -60.999 19.5l-121 34l-49.5 13.5c-16.333 4.33301 -31.833 6.5 -46.5 6.5
c-9.33301 0 -19.666 -1 -30.999 -3c-22.667 -4.66699 -42 -11.5 -58 -20.5s-32.333 -22.5 -49 -40.5l-25 -26l-63 40l21 22c25.333 27.333 51 48.166 77 62.499s57.333 24.166 94 29.499c14 2.66699 28.667 4 44 4c20.667 0 44 -3.33301 70 -10l46 -13l107 -32l64.5 -19.5
c21.667 -6.33301 43.5 -9.5 65.5 -9.5c52 0 95.333 18.667 130 56l27 27z" />
    <glyph glyph-name="notequal" unicode="&#x2260;" horiz-adv-x="932" 
d="M870 209h-473l-141 -251l-80 43l115 208h-244v82h292l122 219h-416v88h465l142 253l75 -43l-116 -210h258v-88h-308l-122 -218h431v-83z" />
    <glyph glyph-name="lessequal" unicode="&#x2264;" horiz-adv-x="684" 
d="M615 136l-569 265v70l569 270v-72l-494 -233l494 -231v-69zM616 -2h-569v61l569 1v-62z" />
    <glyph glyph-name="greaterequal" unicode="&#x2265;" horiz-adv-x="673" 
d="M616 401l-569 -265v69l495 231l-495 233v72l569 -270v-70zM615 -2h-569v62l569 -1v-61z" />
    <glyph glyph-name="lozenge" unicode="&#x25ca;" horiz-adv-x="731" 
d="M663 504l-261 -506h-85l-266 514l266 488h85zM584 504l-226 422l-226 -417l229 -447z" />
    <glyph glyph-name="nonmarkingreturn" horiz-adv-x="385" 
 />
    </font>
</defs>
</svg>
